STARTFONT 2.1
COMMENT Sources:
COMMENT -Misc-Fixed-Medium-O-Normal--13-120-75-75-C-70-ISO10646-1 $ucs-fonts: 7x13O.bdf,v 1.9 2002-11-08 20:42:37+00 mgk25 Rel $
COMMENT -windows-dina-bold-i-normal--13-80-96-96-c-70-microsoft-cp1252
FONT -dylex-terminal-Bold-O-Normal--26-240-75-75-C-140-ISO10646-1
SIZE 26 75 75
FONTBOUNDINGBOX 14 26 0 -6
STARTPROPERTIES 23
CHARSET_ENCODING "1"
POINT_SIZE 240
DESTINATION 1
SETWIDTH_NAME "Normal"
FONT_ASCENT 20
FOUNDRY "dylex"
AVERAGE_WIDTH 140
COPYRIGHT "Public domain font.  Share and enjoy."
CHARSET_REGISTRY "ISO10646"
_GBDFED_INFO "Edited with gbdfed 1.6."
FONTNAME_REGISTRY ""
ADD_STYLE_NAME ""
RESOLUTION_X 75
SLANT "O"
WEIGHT_NAME "Bold"
SPACING "C"
PIXEL_SIZE 26
DEFAULT_CHAR 0
FAMILY_NAME "terminal"
X_HEIGHT 12
CAP_HEIGHT 18
RESOLUTION_Y 75
FONT_DESCENT 6
ENDPROPERTIES
CHARS 256
STARTCHAR char0
ENCODING 0
SWIDTH 994 0
DWIDTH 14 0
BBX 14 26 0 -6
BITMAP
0000
0000
0F3C
0F3C
0F3C
0F3C
0000
0000
3CF0
3CF0
3CF0
3CF0
0000
0000
3CF0
3CF0
3CF0
3CF0
0000
0000
F3C0
F3C0
F3C0
F3C0
0000
0000
ENDCHAR
STARTCHAR char1
ENCODING 1
SWIDTH 994 0
DWIDTH 14 0
BBX 14 26 0 -6
BITMAP
0000
0000
0000
0000
0000
0000
0300
0300
0FC0
0FC0
3CF0
3CF0
F03C
F03C
3CF0
3CF0
0FC0
0FC0
0300
0300
0000
0000
0000
0000
0000
0000
ENDCHAR
STARTCHAR char2
ENCODING 2
SWIDTH 994 0
DWIDTH 14 0
BBX 14 26 0 -6
BITMAP
FFFC
FFFC
FFFC
FFFC
FFFC
FFFC
FFFC
FFFC
FFFC
FFFC
FFFC
FFFC
FFFC
FFFC
FFFC
FFFC
FFFC
FFFC
FFFC
FFFC
FFFC
FFFC
FFFC
FFFC
FFFC
FFFC
ENDCHAR
STARTCHAR char3
ENCODING 3
SWIDTH 994 0
DWIDTH 14 0
BBX 14 26 0 -6
BITMAP
0000
0000
3300
3300
3300
3300
3F00
3F00
3300
3300
33FC
33FC
0030
0030
0030
0030
0030
0030
0030
0030
0000
0000
0000
0000
0000
0000
ENDCHAR
STARTCHAR char4
ENCODING 4
SWIDTH 994 0
DWIDTH 14 0
BBX 14 26 0 -6
BITMAP
0000
0000
3F00
3F00
3000
3000
3C00
3C00
3000
3000
30FC
30FC
00C0
00C0
00F0
00F0
00C0
00C0
00C0
00C0
0000
0000
0000
0000
0000
0000
ENDCHAR
STARTCHAR char5
ENCODING 5
SWIDTH 994 0
DWIDTH 14 0
BBX 14 26 0 -6
BITMAP
0000
0000
0F00
0F00
3000
3000
3000
3000
3000
3000
0FFC
0FFC
00CC
00CC
00F0
00F0
00CC
00CC
00CC
00CC
0000
0000
0000
0000
0000
0000
ENDCHAR
STARTCHAR char6
ENCODING 6
SWIDTH 994 0
DWIDTH 14 0
BBX 14 26 0 -6
BITMAP
0000
0000
3000
3000
3000
3000
3000
3000
3000
3000
3FFC
3FFC
00C0
00C0
00F0
00F0
00C0
00C0
00C0
00C0
0000
0000
0000
0000
0000
0000
ENDCHAR
STARTCHAR char7
ENCODING 7
SWIDTH 994 0
DWIDTH 14 0
BBX 14 26 0 -6
BITMAP
0000
0000
0000
0000
0FC0
0FC0
3CF0
3CF0
3CF0
3CF0
0FC0
0FC0
0000
0000
0000
0000
0000
0000
0000
0000
0000
0000
0000
0000
0000
0000
ENDCHAR
STARTCHAR char8
ENCODING 8
SWIDTH 994 0
DWIDTH 14 0
BBX 14 26 0 -6
BITMAP
0000
0000
0000
0000
0000
0000
03C0
03C0
03C0
03C0
FFFC
FFFC
0F00
0F00
0F00
0F00
0000
0000
FFF0
FFF0
0000
0000
0000
0000
0000
0000
ENDCHAR
STARTCHAR char9
ENCODING 9
SWIDTH 994 0
DWIDTH 14 0
BBX 14 26 0 -6
BITMAP
0000
0000
3C00
3C00
3300
3300
3300
3300
3300
3300
33C0
33C0
00C0
00C0
00C0
00C0
00C0
00C0
00FC
00FC
0000
0000
0000
0000
0000
0000
ENDCHAR
STARTCHAR char10
ENCODING 10
SWIDTH 994 0
DWIDTH 14 0
BBX 14 26 0 -6
BITMAP
0000
0000
3300
3300
3300
3300
3300
3300
0C00
0C00
0CFC
0CFC
0030
0030
0030
0030
0030
0030
0030
0030
0000
0000
0000
0000
0000
0000
ENDCHAR
STARTCHAR char14
ENCODING 11
SWIDTH 994 0
DWIDTH 14 0
BBX 14 26 0 -6
BITMAP
0F00
0F00
0F00
0F00
0F00
0F00
0F00
0F00
0F00
0F00
FF00
FF00
FF00
FF00
0000
0000
0000
0000
0000
0000
0000
0000
0000
0000
0000
0000
ENDCHAR
STARTCHAR char17
ENCODING 12
SWIDTH 994 0
DWIDTH 14 0
BBX 14 26 0 -6
BITMAP
0000
0000
0000
0000
0000
0000
0000
0000
0000
0000
FF00
FF00
FF00
FF00
0F00
0F00
0F00
0F00
0F00
0F00
0F00
0F00
0F00
0F00
0F00
0F00
ENDCHAR
STARTCHAR char16
ENCODING 13
SWIDTH 994 0
DWIDTH 14 0
BBX 14 26 0 -6
BITMAP
0000
0000
0000
0000
0000
0000
0000
0000
0000
0000
0FFC
0FFC
0FFC
0FFC
0F00
0F00
0F00
0F00
0F00
0F00
0F00
0F00
0F00
0F00
0F00
0F00
ENDCHAR
STARTCHAR char15
ENCODING 14
SWIDTH 994 0
DWIDTH 14 0
BBX 14 26 0 -6
BITMAP
0F00
0F00
0F00
0F00
0F00
0F00
0F00
0F00
0F00
0F00
0FFC
0FFC
0FFC
0FFC
0000
0000
0000
0000
0000
0000
0000
0000
0000
0000
0000
0000
ENDCHAR
STARTCHAR char24
ENCODING 15
SWIDTH 994 0
DWIDTH 14 0
BBX 14 26 0 -6
BITMAP
0F00
0F00
0F00
0F00
0F00
0F00
0F00
0F00
0F00
0F00
FFFC
FFFC
FFFC
FFFC
0F00
0F00
0F00
0F00
0F00
0F00
0F00
0F00
0F00
0F00
0F00
0F00
ENDCHAR
STARTCHAR char16
ENCODING 16
SWIDTH 994 0
DWIDTH 14 0
BBX 14 26 0 -6
BITMAP
FFFC
FFFC
FFFC
FFFC
0000
0000
0000
0000
0000
0000
0000
0000
0000
0000
0000
0000
0000
0000
0000
0000
0000
0000
0000
0000
0000
0000
ENDCHAR
STARTCHAR char17
ENCODING 17
SWIDTH 994 0
DWIDTH 14 0
BBX 14 26 0 -6
BITMAP
0000
0000
0000
0000
0000
0000
FFFC
FFFC
FFFC
FFFC
0000
0000
0000
0000
0000
0000
0000
0000
0000
0000
0000
0000
0000
0000
0000
0000
ENDCHAR
STARTCHAR char18
ENCODING 18
SWIDTH 994 0
DWIDTH 14 0
BBX 14 26 0 -6
BITMAP
0000
0000
0000
0000
0000
0000
0000
0000
0000
0000
FFFC
FFFC
FFFC
FFFC
0000
0000
0000
0000
0000
0000
0000
0000
0000
0000
0000
0000
ENDCHAR
STARTCHAR char19
ENCODING 19
SWIDTH 994 0
DWIDTH 14 0
BBX 14 26 0 -6
BITMAP
0000
0000
0000
0000
0000
0000
0000
0000
0000
0000
0000
0000
0000
0000
0000
0000
FFFC
FFFC
FFFC
FFFC
0000
0000
0000
0000
0000
0000
ENDCHAR
STARTCHAR char20
ENCODING 20
SWIDTH 994 0
DWIDTH 14 0
BBX 14 26 0 -6
BITMAP
0000
0000
0000
0000
0000
0000
0000
0000
0000
0000
0000
0000
0000
0000
0000
0000
0000
0000
0000
0000
0000
0000
FFFC
FFFC
FFFC
FFFC
ENDCHAR
STARTCHAR char22
ENCODING 21
SWIDTH 994 0
DWIDTH 14 0
BBX 14 26 0 -6
BITMAP
0F00
0F00
0F00
0F00
0F00
0F00
0F00
0F00
0F00
0F00
0FFC
0FFC
0FFC
0FFC
0F00
0F00
0F00
0F00
0F00
0F00
0F00
0F00
0F00
0F00
0F00
0F00
ENDCHAR
STARTCHAR char20
ENCODING 22
SWIDTH 994 0
DWIDTH 14 0
BBX 14 26 0 -6
BITMAP
0F00
0F00
0F00
0F00
0F00
0F00
0F00
0F00
0F00
0F00
FF00
FF00
FF00
FF00
0F00
0F00
0F00
0F00
0F00
0F00
0F00
0F00
0F00
0F00
0F00
0F00
ENDCHAR
STARTCHAR char21
ENCODING 23
SWIDTH 994 0
DWIDTH 14 0
BBX 14 26 0 -6
BITMAP
0F00
0F00
0F00
0F00
0F00
0F00
0F00
0F00
0F00
0F00
FFFC
FFFC
FFFC
FFFC
0000
0000
0000
0000
0000
0000
0000
0000
0000
0000
0000
0000
ENDCHAR
STARTCHAR char23
ENCODING 24
SWIDTH 994 0
DWIDTH 14 0
BBX 14 26 0 -6
BITMAP
0000
0000
0000
0000
0000
0000
0000
0000
0000
0000
FFFC
FFFC
FFFC
FFFC
0F00
0F00
0F00
0F00
0F00
0F00
0F00
0F00
0F00
0F00
0F00
0F00
ENDCHAR
STARTCHAR char19
ENCODING 25
SWIDTH 994 0
DWIDTH 14 0
BBX 14 26 0 -6
BITMAP
0F00
0F00
0F00
0F00
0F00
0F00
0F00
0F00
0F00
0F00
0F00
0F00
0F00
0F00
0F00
0F00
0F00
0F00
0F00
0F00
0F00
0F00
0F00
0F00
0F00
0F00
ENDCHAR
STARTCHAR char27
ENCODING 26
SWIDTH 994 0
DWIDTH 14 0
BBX 14 26 0 -6
BITMAP
0000
0000
0000
0000
0000
0000
03F0
03F0
3F00
3F00
F000
F000
3F00
3F00
03C0
03C0
0000
0000
FFC0
FFC0
0000
0000
0000
0000
0000
0000
ENDCHAR
STARTCHAR char29
ENCODING 27
SWIDTH 994 0
DWIDTH 14 0
BBX 14 26 0 -6
BITMAP
0000
0000
0000
0000
0000
0000
3C00
3C00
0FC0
0FC0
00F0
00F0
0FC0
0FC0
FC00
FC00
0000
0000
FFC0
FFC0
0000
0000
0000
0000
0000
0000
ENDCHAR
STARTCHAR char28
ENCODING 28
SWIDTH 994 0
DWIDTH 14 0
BBX 14 26 0 -6
BITMAP
0000
0000
0000
0000
0000
0000
0000
0000
FFFC
FFFC
3CF0
3CF0
3CF0
3CF0
F3C0
F3C0
F3C0
F3C0
F3C0
F3C0
0000
0000
0000
0000
0000
0000
ENDCHAR
STARTCHAR char26
ENCODING 29
SWIDTH 994 0
DWIDTH 14 0
BBX 14 26 0 -6
BITMAP
0000
0000
0000
0000
0000
0000
0000
0000
00F0
00F0
3FFC
3FFC
0FC0
0FC0
FFF0
FFF0
3C00
3C00
0000
0000
0000
0000
0000
0000
0000
0000
ENDCHAR
STARTCHAR char30
ENCODING 30
SWIDTH 994 0
DWIDTH 14 0
BBX 14 26 0 -6
BITMAP
0000
0000
0000
0000
00FC
00FC
03C0
03C0
0F00
0F00
FFC0
FFC0
3C00
3C00
3C00
3C00
F000
F000
FFC0
FFC0
0000
0000
0000
0000
0000
0000
ENDCHAR
STARTCHAR char31
ENCODING 31
SWIDTH 994 0
DWIDTH 14 0
BBX 14 26 0 -6
BITMAP
0000
0000
0000
0000
0000
0000
0000
0000
0000
0000
0000
0000
3FC0
3FC0
0000
0000
0000
0000
0000
0000
0000
0000
0000
0000
0000
0000
ENDCHAR
STARTCHAR char32
ENCODING 32
SWIDTH 994 0
DWIDTH 14 0
BBX 14 26 0 -6
BITMAP
0000
0000
0000
0000
0000
0000
0000
0000
0000
0000
0000
0000
0000
0000
0000
0000
0000
0000
0000
0000
0000
0000
0000
0000
0000
0000
ENDCHAR
STARTCHAR char33
ENCODING 33
SWIDTH 994 0
DWIDTH 14 0
BBX 14 26 0 -6
BITMAP
0000
0000
0000
0000
03C0
03C0
03C0
03C0
03C0
03C0
0F00
0F00
0F00
0F00
0000
0000
3C00
3C00
3C00
3C00
0000
0000
0000
0000
0000
0000
ENDCHAR
STARTCHAR char34
ENCODING 34
SWIDTH 994 0
DWIDTH 14 0
BBX 14 26 0 -6
BITMAP
0000
0000
3CF0
3CF0
3CF0
3CF0
3CF0
3CF0
0000
0000
0000
0000
0000
0000
0000
0000
0000
0000
0000
0000
0000
0000
0000
0000
0000
0000
ENDCHAR
STARTCHAR char35
ENCODING 35
SWIDTH 994 0
DWIDTH 14 0
BBX 14 26 0 -6
BITMAP
0000
0000
0000
0000
0F30
0F30
0F30
0F30
3FFC
3FFC
0F30
0F30
3CC0
3CC0
FFF0
FFF0
3CC0
3CC0
3CC0
3CC0
0000
0000
0000
0000
0000
0000
ENDCHAR
STARTCHAR char36
ENCODING 36
SWIDTH 994 0
DWIDTH 14 0
BBX 14 26 0 -6
BITMAP
0000
0000
00C0
00C0
0FF0
0FF0
3CFC
3CFC
3F00
3F00
0F00
0F00
03C0
03C0
03F0
03F0
FCF0
FCF0
3FC0
3FC0
0C00
0C00
0000
0000
0000
0000
ENDCHAR
STARTCHAR char37
ENCODING 37
SWIDTH 994 0
DWIDTH 14 0
BBX 14 26 0 -6
BITMAP
0000
0000
0000
0000
3C00
3C00
FF00
FF00
3CF0
3CF0
03C0
03C0
0F00
0F00
3C00
3C00
F3C0
F3C0
0FF0
0FF0
03C0
03C0
0000
0000
0000
0000
ENDCHAR
STARTCHAR char38
ENCODING 38
SWIDTH 994 0
DWIDTH 14 0
BBX 14 26 0 -6
BITMAP
0000
0000
0000
0000
03C0
03C0
0F30
0F30
0F30
0F30
0FC0
0FC0
3FF0
3FF0
F3C0
F3C0
F3C0
F3C0
3CF0
3CF0
0000
0000
0000
0000
0000
0000
ENDCHAR
STARTCHAR char39
ENCODING 39
SWIDTH 994 0
DWIDTH 14 0
BBX 14 26 0 -6
BITMAP
0000
0000
0F00
0F00
0F00
0F00
0F00
0F00
0000
0000
0000
0000
0000
0000
0000
0000
0000
0000
0000
0000
0000
0000
0000
0000
0000
0000
ENDCHAR
STARTCHAR char40
ENCODING 40
SWIDTH 994 0
DWIDTH 14 0
BBX 14 26 0 -6
BITMAP
0000
0000
00F0
00F0
03C0
03C0
0F00
0F00
0F00
0F00
3C00
3C00
3C00
3C00
3C00
3C00
3C00
3C00
0F00
0F00
0F00
0F00
03C0
03C0
0000
0000
ENDCHAR
STARTCHAR char41
ENCODING 41
SWIDTH 994 0
DWIDTH 14 0
BBX 14 26 0 -6
BITMAP
0000
0000
3C00
3C00
0F00
0F00
0F00
0F00
03C0
03C0
03C0
03C0
03C0
03C0
03C0
03C0
0F00
0F00
0F00
0F00
3C00
3C00
F000
F000
0000
0000
ENDCHAR
STARTCHAR char42
ENCODING 42
SWIDTH 994 0
DWIDTH 14 0
BBX 14 26 0 -6
BITMAP
0000
0000
0000
0000
0000
0000
0000
0000
3CF0
3CF0
0F00
0F00
FFF0
FFF0
0F00
0F00
F3C0
F3C0
0000
0000
0000
0000
0000
0000
0000
0000
ENDCHAR
STARTCHAR char43
ENCODING 43
SWIDTH 994 0
DWIDTH 14 0
BBX 14 26 0 -6
BITMAP
0000
0000
0000
0000
0000
0000
0000
0000
03C0
03C0
03C0
03C0
3FF0
3FF0
0F00
0F00
0F00
0F00
0000
0000
0000
0000
0000
0000
0000
0000
ENDCHAR
STARTCHAR char44
ENCODING 44
SWIDTH 994 0
DWIDTH 14 0
BBX 14 26 0 -6
BITMAP
0000
0000
0000
0000
0000
0000
0000
0000
0000
0000
0000
0000
0000
0000
0000
0000
03C0
03C0
03C0
03C0
0F00
0F00
3C00
3C00
0000
0000
ENDCHAR
STARTCHAR char45
ENCODING 45
SWIDTH 994 0
DWIDTH 14 0
BBX 14 26 0 -6
BITMAP
0000
0000
0000
0000
0000
0000
0000
0000
0000
0000
0000
0000
3FF0
3FF0
0000
0000
0000
0000
0000
0000
0000
0000
0000
0000
0000
0000
ENDCHAR
STARTCHAR char46
ENCODING 46
SWIDTH 994 0
DWIDTH 14 0
BBX 14 26 0 -6
BITMAP
0000
0000
0000
0000
0000
0000
0000
0000
0000
0000
0000
0000
0000
0000
0000
0000
0F00
0F00
0F00
0F00
0000
0000
0000
0000
0000
0000
ENDCHAR
STARTCHAR char47
ENCODING 47
SWIDTH 994 0
DWIDTH 14 0
BBX 14 26 0 -6
BITMAP
0000
0000
003C
003C
00F0
00F0
00F0
00F0
03C0
03C0
03C0
03C0
0F00
0F00
0F00
0F00
3C00
3C00
3C00
3C00
F000
F000
0000
0000
0000
0000
ENDCHAR
STARTCHAR char48
ENCODING 48
SWIDTH 994 0
DWIDTH 14 0
BBX 14 26 0 -6
BITMAP
0000
0000
0000
0000
0FF0
0FF0
3C3C
3C3C
3CFC
3CFC
F33C
F33C
F33C
F33C
FCF0
FCF0
F0F0
F0F0
3F00
3F00
0000
0000
0000
0000
0000
0000
ENDCHAR
STARTCHAR char49
ENCODING 49
SWIDTH 994 0
DWIDTH 14 0
BBX 14 26 0 -6
BITMAP
0000
0000
0000
0000
03F0
03F0
0FF0
0FF0
3CF0
3CF0
03C0
03C0
03C0
03C0
0F00
0F00
0F00
0F00
FFF0
FFF0
0000
0000
0000
0000
0000
0000
ENDCHAR
STARTCHAR char50
ENCODING 50
SWIDTH 994 0
DWIDTH 14 0
BBX 14 26 0 -6
BITMAP
0000
0000
0000
0000
03F0
03F0
0F3C
0F3C
003C
003C
03F0
03F0
0FC0
0FC0
3C00
3C00
F000
F000
FFC0
FFC0
0000
0000
0000
0000
0000
0000
ENDCHAR
STARTCHAR char51
ENCODING 51
SWIDTH 994 0
DWIDTH 14 0
BBX 14 26 0 -6
BITMAP
0000
0000
0000
0000
03F0
03F0
0F3C
0F3C
00F0
00F0
03C0
03C0
00F0
00F0
00F0
00F0
F3C0
F3C0
3F00
3F00
0000
0000
0000
0000
0000
0000
ENDCHAR
STARTCHAR char52
ENCODING 52
SWIDTH 994 0
DWIDTH 14 0
BBX 14 26 0 -6
BITMAP
0000
0000
0000
0000
00FC
00FC
03FC
03FC
0F3C
0F3C
3CF0
3CF0
F0F0
F0F0
FFFC
FFFC
03C0
03C0
03C0
03C0
0000
0000
0000
0000
0000
0000
ENDCHAR
STARTCHAR char53
ENCODING 53
SWIDTH 994 0
DWIDTH 14 0
BBX 14 26 0 -6
BITMAP
0000
0000
0000
0000
0FFC
0FFC
0F00
0F00
3C00
3C00
3FC0
3FC0
00F0
00F0
00F0
00F0
F3C0
F3C0
3F00
3F00
0000
0000
0000
0000
0000
0000
ENDCHAR
STARTCHAR char54
ENCODING 54
SWIDTH 994 0
DWIDTH 14 0
BBX 14 26 0 -6
BITMAP
0000
0000
0000
0000
03F0
03F0
0F00
0F00
3C00
3C00
3FC0
3FC0
F0F0
F0F0
F0F0
F0F0
F3C0
F3C0
3F00
3F00
0000
0000
0000
0000
0000
0000
ENDCHAR
STARTCHAR char55
ENCODING 55
SWIDTH 994 0
DWIDTH 14 0
BBX 14 26 0 -6
BITMAP
0000
0000
0000
0000
FFF0
FFF0
00F0
00F0
03C0
03C0
0F00
0F00
3C00
3C00
3C00
3C00
F000
F000
F000
F000
0000
0000
0000
0000
0000
0000
ENDCHAR
STARTCHAR char56
ENCODING 56
SWIDTH 994 0
DWIDTH 14 0
BBX 14 26 0 -6
BITMAP
0000
0000
0000
0000
03F0
03F0
0F3C
0F3C
3CF0
3CF0
0FC0
0FC0
3CF0
3CF0
F0F0
F0F0
F3C0
F3C0
3F00
3F00
0000
0000
0000
0000
0000
0000
ENDCHAR
STARTCHAR char57
ENCODING 57
SWIDTH 994 0
DWIDTH 14 0
BBX 14 26 0 -6
BITMAP
0000
0000
0000
0000
03F0
03F0
0F3C
0F3C
3C3C
3C3C
3C3C
3C3C
0FF0
0FF0
00F0
00F0
03C0
03C0
3F00
3F00
0000
0000
0000
0000
0000
0000
ENDCHAR
STARTCHAR char58
ENCODING 58
SWIDTH 994 0
DWIDTH 14 0
BBX 14 26 0 -6
BITMAP
0000
0000
0000
0000
0000
0000
0000
0000
03C0
03C0
03C0
03C0
0000
0000
0000
0000
0F00
0F00
0F00
0F00
0000
0000
0000
0000
0000
0000
ENDCHAR
STARTCHAR char59
ENCODING 59
SWIDTH 994 0
DWIDTH 14 0
BBX 14 26 0 -6
BITMAP
0000
0000
0000
0000
0000
0000
0000
0000
03C0
03C0
03C0
03C0
0000
0000
0000
0000
0F00
0F00
0F00
0F00
3C00
3C00
F000
F000
0000
0000
ENDCHAR
STARTCHAR char60
ENCODING 60
SWIDTH 994 0
DWIDTH 14 0
BBX 14 26 0 -6
BITMAP
0000
0000
0000
0000
0000
0000
00F0
00F0
03C0
03C0
0F00
0F00
3C00
3C00
3C00
3C00
0F00
0F00
0F00
0F00
0000
0000
0000
0000
0000
0000
ENDCHAR
STARTCHAR char61
ENCODING 61
SWIDTH 994 0
DWIDTH 14 0
BBX 14 26 0 -6
BITMAP
0000
0000
0000
0000
0000
0000
0000
0000
0000
0000
3FFC
3FFC
0000
0000
FFF0
FFF0
0000
0000
0000
0000
0000
0000
0000
0000
0000
0000
ENDCHAR
STARTCHAR char62
ENCODING 62
SWIDTH 994 0
DWIDTH 14 0
BBX 14 26 0 -6
BITMAP
0000
0000
0000
0000
0000
0000
03C0
03C0
03C0
03C0
00F0
00F0
00F0
00F0
03C0
03C0
0F00
0F00
3C00
3C00
0000
0000
0000
0000
0000
0000
ENDCHAR
STARTCHAR char63
ENCODING 63
SWIDTH 994 0
DWIDTH 14 0
BBX 14 26 0 -6
BITMAP
0000
0000
0000
0000
0FF0
0FF0
3C3C
3C3C
003C
003C
00F0
00F0
03C0
03C0
0000
0000
0F00
0F00
0F00
0F00
0000
0000
0000
0000
0000
0000
ENDCHAR
STARTCHAR char64
ENCODING 64
SWIDTH 994 0
DWIDTH 14 0
BBX 14 26 0 -6
BITMAP
0000
0000
0000
0000
0FF0
0FF0
3C3C
3C3C
3C3C
3C3C
3CF0
3CF0
FFF0
FFF0
F3F0
F3F0
F000
F000
3FF0
3FF0
0000
0000
0000
0000
0000
0000
ENDCHAR
STARTCHAR char65
ENCODING 65
SWIDTH 994 0
DWIDTH 14 0
BBX 14 26 0 -6
BITMAP
0000
0000
0000
0000
00FC
00FC
03FC
03FC
0F3C
0F3C
0F3C
0F3C
3FF0
3FF0
3CF0
3CF0
F0F0
F0F0
F0F0
F0F0
0000
0000
0000
0000
0000
0000
ENDCHAR
STARTCHAR char66
ENCODING 66
SWIDTH 994 0
DWIDTH 14 0
BBX 14 26 0 -6
BITMAP
0000
0000
0000
0000
0FF0
0FF0
0F3C
0F3C
3CF0
3CF0
3FC0
3FC0
3CC0
3CC0
F0F0
F0F0
F0F0
F0F0
FFC0
FFC0
0000
0000
0000
0000
0000
0000
ENDCHAR
STARTCHAR char67
ENCODING 67
SWIDTH 994 0
DWIDTH 14 0
BBX 14 26 0 -6
BITMAP
0000
0000
0000
0000
03F0
03F0
0F3C
0F3C
3C00
3C00
3C00
3C00
F000
F000
F000
F000
F3C0
F3C0
3F00
3F00
0000
0000
0000
0000
0000
0000
ENDCHAR
STARTCHAR char68
ENCODING 68
SWIDTH 994 0
DWIDTH 14 0
BBX 14 26 0 -6
BITMAP
0000
0000
0000
0000
0FF0
0FF0
0F3C
0F3C
0F3C
0F3C
3C3C
3C3C
3CF0
3CF0
F0F0
F0F0
F3C0
F3C0
FF00
FF00
0000
0000
0000
0000
0000
0000
ENDCHAR
STARTCHAR char69
ENCODING 69
SWIDTH 994 0
DWIDTH 14 0
BBX 14 26 0 -6
BITMAP
0000
0000
0000
0000
0FFC
0FFC
0F00
0F00
3C00
3C00
3FC0
3FC0
3C00
3C00
F000
F000
F000
F000
FFC0
FFC0
0000
0000
0000
0000
0000
0000
ENDCHAR
STARTCHAR char70
ENCODING 70
SWIDTH 994 0
DWIDTH 14 0
BBX 14 26 0 -6
BITMAP
0000
0000
0000
0000
0FFC
0FFC
0F00
0F00
3C00
3C00
3FC0
3FC0
3C00
3C00
F000
F000
F000
F000
F000
F000
0000
0000
0000
0000
0000
0000
ENDCHAR
STARTCHAR char71
ENCODING 71
SWIDTH 994 0
DWIDTH 14 0
BBX 14 26 0 -6
BITMAP
0000
0000
0000
0000
03F0
03F0
0F3C
0F3C
3C00
3C00
3C00
3C00
F3F0
F3F0
F0F0
F0F0
F3C0
F3C0
3F00
3F00
0000
0000
0000
0000
0000
0000
ENDCHAR
STARTCHAR char72
ENCODING 72
SWIDTH 994 0
DWIDTH 14 0
BBX 14 26 0 -6
BITMAP
0000
0000
0000
0000
0F3C
0F3C
0F3C
0F3C
3CF0
3CF0
3FF0
3FF0
3CF0
3CF0
F3C0
F3C0
F3C0
F3C0
F3C0
F3C0
0000
0000
0000
0000
0000
0000
ENDCHAR
STARTCHAR char73
ENCODING 73
SWIDTH 994 0
DWIDTH 14 0
BBX 14 26 0 -6
BITMAP
0000
0000
0000
0000
0FF0
0FF0
03C0
03C0
0F00
0F00
0F00
0F00
0F00
0F00
3C00
3C00
3C00
3C00
FF00
FF00
0000
0000
0000
0000
0000
0000
ENDCHAR
STARTCHAR char74
ENCODING 74
SWIDTH 994 0
DWIDTH 14 0
BBX 14 26 0 -6
BITMAP
0000
0000
0000
0000
03FC
03FC
003C
003C
003C
003C
00F0
00F0
00F0
00F0
F0F0
F0F0
F3C0
F3C0
3F00
3F00
0000
0000
0000
0000
0000
0000
ENDCHAR
STARTCHAR char75
ENCODING 75
SWIDTH 994 0
DWIDTH 14 0
BBX 14 26 0 -6
BITMAP
0000
0000
0000
0000
0F0C
0F0C
0F3C
0F3C
3CF0
3CF0
3FC0
3FC0
3CF0
3CF0
F0F0
F0F0
F0F0
F0F0
F0F0
F0F0
0000
0000
0000
0000
0000
0000
ENDCHAR
STARTCHAR char76
ENCODING 76
SWIDTH 994 0
DWIDTH 14 0
BBX 14 26 0 -6
BITMAP
0000
0000
0000
0000
0F00
0F00
0F00
0F00
3C00
3C00
3C00
3C00
3C00
3C00
F000
F000
F000
F000
FFF0
FFF0
0000
0000
0000
0000
0000
0000
ENDCHAR
STARTCHAR char77
ENCODING 77
SWIDTH 994 0
DWIDTH 14 0
BBX 14 26 0 -6
BITMAP
0000
0000
0000
0000
0C0C
0C0C
0F3C
0F3C
3FFC
3FFC
3F3C
3F3C
3C3C
3C3C
F0F0
F0F0
F0F0
F0F0
F0F0
F0F0
0000
0000
0000
0000
0000
0000
ENDCHAR
STARTCHAR char78
ENCODING 78
SWIDTH 994 0
DWIDTH 14 0
BBX 14 26 0 -6
BITMAP
0000
0000
0000
0000
3C3C
3C3C
3C3C
3C3C
3F3C
3F3C
3F3C
3F3C
F3F0
F3F0
F0F0
F0F0
F0F0
F0F0
F0F0
F0F0
0000
0000
0000
0000
0000
0000
ENDCHAR
STARTCHAR char79
ENCODING 79
SWIDTH 994 0
DWIDTH 14 0
BBX 14 26 0 -6
BITMAP
0000
0000
0000
0000
03F0
03F0
0F3C
0F3C
3C3C
3C3C
3C3C
3C3C
F0F0
F0F0
F0F0
F0F0
F3C0
F3C0
3F00
3F00
0000
0000
0000
0000
0000
0000
ENDCHAR
STARTCHAR char80
ENCODING 80
SWIDTH 994 0
DWIDTH 14 0
BBX 14 26 0 -6
BITMAP
0000
0000
0000
0000
0FF0
0FF0
0F3C
0F3C
0F3C
0F3C
3CF0
3CF0
3FC0
3FC0
3C00
3C00
F000
F000
F000
F000
0000
0000
0000
0000
0000
0000
ENDCHAR
STARTCHAR char81
ENCODING 81
SWIDTH 994 0
DWIDTH 14 0
BBX 14 26 0 -6
BITMAP
0000
0000
0000
0000
03F0
03F0
0F3C
0F3C
3C3C
3C3C
3C3C
3C3C
F0F0
F0F0
F0F0
F0F0
F3C0
F3C0
3FF0
3FF0
00F0
00F0
0000
0000
0000
0000
ENDCHAR
STARTCHAR char82
ENCODING 82
SWIDTH 994 0
DWIDTH 14 0
BBX 14 26 0 -6
BITMAP
0000
0000
0000
0000
0FF0
0FF0
0F3C
0F3C
3C3C
3C3C
3FF0
3FF0
3FC0
3FC0
F0F0
F0F0
F0F0
F0F0
F0F0
F0F0
0000
0000
0000
0000
0000
0000
ENDCHAR
STARTCHAR char83
ENCODING 83
SWIDTH 994 0
DWIDTH 14 0
BBX 14 26 0 -6
BITMAP
0000
0000
0000
0000
0FF0
0FF0
3C3C
3C3C
3C00
3C00
0F00
0F00
03C0
03C0
03C0
03C0
F3C0
F3C0
3F00
3F00
0000
0000
0000
0000
0000
0000
ENDCHAR
STARTCHAR char84
ENCODING 84
SWIDTH 994 0
DWIDTH 14 0
BBX 14 26 0 -6
BITMAP
0000
0000
0000
0000
3FFC
3FFC
03C0
03C0
03C0
03C0
0F00
0F00
0F00
0F00
3C00
3C00
3C00
3C00
3C00
3C00
0000
0000
0000
0000
0000
0000
ENDCHAR
STARTCHAR char85
ENCODING 85
SWIDTH 994 0
DWIDTH 14 0
BBX 14 26 0 -6
BITMAP
0000
0000
0000
0000
0F3C
0F3C
0F3C
0F3C
3CF0
3CF0
3CF0
3CF0
3CF0
3CF0
F3C0
F3C0
F3C0
F3C0
3F00
3F00
0000
0000
0000
0000
0000
0000
ENDCHAR
STARTCHAR char86
ENCODING 86
SWIDTH 994 0
DWIDTH 14 0
BBX 14 26 0 -6
BITMAP
0000
0000
0000
0000
3C3C
3C3C
3C3C
3C3C
3CF0
3CF0
3CF0
3CF0
3FC0
3FC0
3F00
3F00
3C00
3C00
3C00
3C00
0000
0000
0000
0000
0000
0000
ENDCHAR
STARTCHAR char87
ENCODING 87
SWIDTH 994 0
DWIDTH 14 0
BBX 14 26 0 -6
BITMAP
0000
0000
0000
0000
0F3C
0F3C
0F3C
0F3C
3C3C
3C3C
3CF0
3CF0
3FF0
3FF0
FFF0
FFF0
F3C0
F3C0
C0C0
C0C0
0000
0000
0000
0000
0000
0000
ENDCHAR
STARTCHAR char88
ENCODING 88
SWIDTH 994 0
DWIDTH 14 0
BBX 14 26 0 -6
BITMAP
0000
0000
0000
0000
3C3C
3C3C
3C3C
3C3C
0FF0
0FF0
03C0
03C0
0F00
0F00
3FC0
3FC0
F0F0
F0F0
F0F0
F0F0
0000
0000
0000
0000
0000
0000
ENDCHAR
STARTCHAR char89
ENCODING 89
SWIDTH 994 0
DWIDTH 14 0
BBX 14 26 0 -6
BITMAP
0000
0000
0000
0000
3C3C
3C3C
3C3C
3C3C
3CF0
3CF0
3FC0
3FC0
0F00
0F00
0F00
0F00
3C00
3C00
3C00
3C00
0000
0000
0000
0000
0000
0000
ENDCHAR
STARTCHAR char90
ENCODING 90
SWIDTH 994 0
DWIDTH 14 0
BBX 14 26 0 -6
BITMAP
0000
0000
0000
0000
0FFC
0FFC
00F0
00F0
03C0
03C0
0F00
0F00
3C00
3C00
3C00
3C00
F000
F000
FFC0
FFC0
0000
0000
0000
0000
0000
0000
ENDCHAR
STARTCHAR char91
ENCODING 91
SWIDTH 994 0
DWIDTH 14 0
BBX 14 26 0 -6
BITMAP
0000
0000
0FF0
0FF0
0F00
0F00
0F00
0F00
3C00
3C00
3C00
3C00
3C00
3C00
3C00
3C00
F000
F000
F000
F000
F000
F000
FF00
FF00
0000
0000
ENDCHAR
STARTCHAR char92
ENCODING 92
SWIDTH 994 0
DWIDTH 14 0
BBX 14 26 0 -6
BITMAP
0000
0000
3C00
3C00
3C00
3C00
0F00
0F00
0F00
0F00
0F00
0F00
03C0
03C0
03C0
03C0
03C0
03C0
00F0
00F0
00F0
00F0
0000
0000
0000
0000
ENDCHAR
STARTCHAR char93
ENCODING 93
SWIDTH 994 0
DWIDTH 14 0
BBX 14 26 0 -6
BITMAP
0000
0000
0FF0
0FF0
00F0
00F0
00F0
00F0
03C0
03C0
03C0
03C0
03C0
03C0
03C0
03C0
0F00
0F00
0F00
0F00
0F00
0F00
FF00
FF00
0000
0000
ENDCHAR
STARTCHAR char94
ENCODING 94
SWIDTH 994 0
DWIDTH 14 0
BBX 14 26 0 -6
BITMAP
0000
0000
0FC0
0FC0
0FC0
0FC0
3CF0
3CF0
3CF0
3CF0
F0F0
F0F0
F0F0
F0F0
0000
0000
0000
0000
0000
0000
0000
0000
0000
0000
0000
0000
ENDCHAR
STARTCHAR char95
ENCODING 95
SWIDTH 994 0
DWIDTH 14 0
BBX 14 26 0 -6
BITMAP
0000
0000
0000
0000
0000
0000
0000
0000
0000
0000
0000
0000
0000
0000
0000
0000
0000
0000
0000
0000
FFFC
FFFC
0000
0000
0000
0000
ENDCHAR
STARTCHAR char96
ENCODING 96
SWIDTH 994 0
DWIDTH 14 0
BBX 14 26 0 -6
BITMAP
0000
0000
0F00
0F00
03C0
03C0
0000
0000
0000
0000
0000
0000
0000
0000
0000
0000
0000
0000
0000
0000
0000
0000
0000
0000
0000
0000
ENDCHAR
STARTCHAR char97
ENCODING 97
SWIDTH 994 0
DWIDTH 14 0
BBX 14 26 0 -6
BITMAP
0000
0000
0000
0000
0000
0000
0000
0000
0FC0
0FC0
00F0
00F0
3FF0
3FF0
F0F0
F0F0
F3C0
F3C0
3FC0
3FC0
0000
0000
0000
0000
0000
0000
ENDCHAR
STARTCHAR char98
ENCODING 98
SWIDTH 994 0
DWIDTH 14 0
BBX 14 26 0 -6
BITMAP
0000
0000
0F00
0F00
0F00
0F00
0F00
0F00
3FC0
3FC0
3CF0
3CF0
3CF0
3CF0
F3C0
F3C0
F3C0
F3C0
FF00
FF00
0000
0000
0000
0000
0000
0000
ENDCHAR
STARTCHAR char99
ENCODING 99
SWIDTH 994 0
DWIDTH 14 0
BBX 14 26 0 -6
BITMAP
0000
0000
0000
0000
0000
0000
0000
0000
0FC0
0FC0
3CF0
3CF0
3C00
3C00
F000
F000
F3C0
F3C0
3F00
3F00
0000
0000
0000
0000
0000
0000
ENDCHAR
STARTCHAR char100
ENCODING 100
SWIDTH 994 0
DWIDTH 14 0
BBX 14 26 0 -6
BITMAP
0000
0000
003C
003C
003C
003C
003C
003C
0FF0
0FF0
3CF0
3CF0
3CF0
3CF0
F3C0
F3C0
F3C0
F3C0
3FC0
3FC0
0000
0000
0000
0000
0000
0000
ENDCHAR
STARTCHAR char101
ENCODING 101
SWIDTH 994 0
DWIDTH 14 0
BBX 14 26 0 -6
BITMAP
0000
0000
0000
0000
0000
0000
0000
0000
0FC0
0FC0
3CF0
3CF0
3FF0
3FF0
F000
F000
F3C0
F3C0
3F00
3F00
0000
0000
0000
0000
0000
0000
ENDCHAR
STARTCHAR char102
ENCODING 102
SWIDTH 994 0
DWIDTH 14 0
BBX 14 26 0 -6
BITMAP
0000
0000
00FC
00FC
03C0
03C0
03C0
03C0
3FF0
3FF0
0F00
0F00
0F00
0F00
3C00
3C00
3C00
3C00
3C00
3C00
0000
0000
0000
0000
0000
0000
ENDCHAR
STARTCHAR char103
ENCODING 103
SWIDTH 994 0
DWIDTH 14 0
BBX 14 26 0 -6
BITMAP
0000
0000
0000
0000
0000
0000
0000
0000
0FF0
0FF0
3CF0
3CF0
3CF0
3CF0
F3C0
F3C0
F3C0
F3C0
3FC0
3FC0
0F00
0F00
0F00
0F00
FC00
FC00
ENDCHAR
STARTCHAR char104
ENCODING 104
SWIDTH 994 0
DWIDTH 14 0
BBX 14 26 0 -6
BITMAP
0000
0000
0F00
0F00
0F00
0F00
0F00
0F00
3FC0
3FC0
3CF0
3CF0
3CF0
3CF0
F3C0
F3C0
F3C0
F3C0
F3C0
F3C0
0000
0000
0000
0000
0000
0000
ENDCHAR
STARTCHAR char105
ENCODING 105
SWIDTH 994 0
DWIDTH 14 0
BBX 14 26 0 -6
BITMAP
0000
0000
00F0
00F0
00F0
00F0
0000
0000
0FC0
0FC0
03C0
03C0
03C0
03C0
0F00
0F00
0F00
0F00
0F00
0F00
0000
0000
0000
0000
0000
0000
ENDCHAR
STARTCHAR char106
ENCODING 106
SWIDTH 994 0
DWIDTH 14 0
BBX 14 26 0 -6
BITMAP
0000
0000
00F0
00F0
00F0
00F0
0000
0000
0FC0
0FC0
03C0
03C0
03C0
03C0
03C0
03C0
0F00
0F00
0F00
0F00
0F00
0F00
FC00
FC00
0000
0000
ENDCHAR
STARTCHAR char107
ENCODING 107
SWIDTH 994 0
DWIDTH 14 0
BBX 14 26 0 -6
BITMAP
0000
0000
0F00
0F00
0F00
0F00
0F00
0F00
3C3C
3C3C
3CF0
3CF0
3FC0
3FC0
FF00
FF00
F3C0
F3C0
F0F0
F0F0
0000
0000
0000
0000
0000
0000
ENDCHAR
STARTCHAR char108
ENCODING 108
SWIDTH 994 0
DWIDTH 14 0
BBX 14 26 0 -6
BITMAP
0000
0000
0FC0
0FC0
03C0
03C0
03C0
03C0
0F00
0F00
0F00
0F00
0F00
0F00
3C00
3C00
3C00
3C00
3C00
3C00
0000
0000
0000
0000
0000
0000
ENDCHAR
STARTCHAR char109
ENCODING 109
SWIDTH 994 0
DWIDTH 14 0
BBX 14 26 0 -6
BITMAP
0000
0000
0000
0000
0000
0000
0000
0000
3CF0
3CF0
3FFC
3FFC
3FFC
3FFC
F330
F330
F0F0
F0F0
F0F0
F0F0
0000
0000
0000
0000
0000
0000
ENDCHAR
STARTCHAR char110
ENCODING 110
SWIDTH 994 0
DWIDTH 14 0
BBX 14 26 0 -6
BITMAP
0000
0000
0000
0000
0000
0000
0000
0000
3FC0
3FC0
3CF0
3CF0
3CF0
3CF0
F3C0
F3C0
F3C0
F3C0
F3C0
F3C0
0000
0000
0000
0000
0000
0000
ENDCHAR
STARTCHAR char111
ENCODING 111
SWIDTH 994 0
DWIDTH 14 0
BBX 14 26 0 -6
BITMAP
0000
0000
0000
0000
0000
0000
0000
0000
0FC0
0FC0
3CF0
3CF0
3CF0
3CF0
F3C0
F3C0
F3C0
F3C0
3F00
3F00
0000
0000
0000
0000
0000
0000
ENDCHAR
STARTCHAR char112
ENCODING 112
SWIDTH 994 0
DWIDTH 14 0
BBX 14 26 0 -6
BITMAP
0000
0000
0000
0000
0000
0000
0000
0000
0FF0
0FF0
0F3C
0F3C
0F3C
0F3C
3CF0
3CF0
3CF0
3CF0
3FC0
3FC0
F000
F000
F000
F000
F000
F000
ENDCHAR
STARTCHAR char113
ENCODING 113
SWIDTH 994 0
DWIDTH 14 0
BBX 14 26 0 -6
BITMAP
0000
0000
0000
0000
0000
0000
0000
0000
0FF0
0FF0
3CF0
3CF0
3CF0
3CF0
F3C0
F3C0
F3C0
F3C0
3FC0
3FC0
0F00
0F00
0F00
0F00
0F00
0F00
ENDCHAR
STARTCHAR char114
ENCODING 114
SWIDTH 994 0
DWIDTH 14 0
BBX 14 26 0 -6
BITMAP
0000
0000
0000
0000
0000
0000
0000
0000
3CF0
3CF0
3F3C
3F3C
3C00
3C00
F000
F000
F000
F000
F000
F000
0000
0000
0000
0000
0000
0000
ENDCHAR
STARTCHAR char115
ENCODING 115
SWIDTH 994 0
DWIDTH 14 0
BBX 14 26 0 -6
BITMAP
0000
0000
0000
0000
0000
0000
0000
0000
0FC0
0FC0
3CF0
3CF0
0F00
0F00
03C0
03C0
F3C0
F3C0
3F00
3F00
0000
0000
0000
0000
0000
0000
ENDCHAR
STARTCHAR char116
ENCODING 116
SWIDTH 994 0
DWIDTH 14 0
BBX 14 26 0 -6
BITMAP
0000
0000
0000
0000
03C0
03C0
03C0
03C0
3FF0
3FF0
0F00
0F00
0F00
0F00
3C00
3C00
3C00
3C00
0FF0
0FF0
0000
0000
0000
0000
0000
0000
ENDCHAR
STARTCHAR char117
ENCODING 117
SWIDTH 994 0
DWIDTH 14 0
BBX 14 26 0 -6
BITMAP
0000
0000
0000
0000
0000
0000
0000
0000
3CF0
3CF0
3CF0
3CF0
3CF0
3CF0
F3C0
F3C0
F3C0
F3C0
3FC0
3FC0
0000
0000
0000
0000
0000
0000
ENDCHAR
STARTCHAR char118
ENCODING 118
SWIDTH 994 0
DWIDTH 14 0
BBX 14 26 0 -6
BITMAP
0000
0000
0000
0000
0000
0000
0000
0000
3CF0
3CF0
3CF0
3CF0
0FC0
0FC0
0FC0
0FC0
0F00
0F00
0C00
0C00
0000
0000
0000
0000
0000
0000
ENDCHAR
STARTCHAR char119
ENCODING 119
SWIDTH 994 0
DWIDTH 14 0
BBX 14 26 0 -6
BITMAP
0000
0000
0000
0000
0000
0000
0000
0000
3C3C
3C3C
3C3C
3C3C
F33C
F33C
F330
F330
3FF0
3FF0
33C0
33C0
0000
0000
0000
0000
0000
0000
ENDCHAR
STARTCHAR char120
ENCODING 120
SWIDTH 994 0
DWIDTH 14 0
BBX 14 26 0 -6
BITMAP
0000
0000
0000
0000
0000
0000
0000
0000
3C3C
3C3C
0FF0
0FF0
03C0
03C0
0F00
0F00
3FC0
3FC0
F0F0
F0F0
0000
0000
0000
0000
0000
0000
ENDCHAR
STARTCHAR char121
ENCODING 121
SWIDTH 994 0
DWIDTH 14 0
BBX 14 26 0 -6
BITMAP
0000
0000
0000
0000
0000
0000
0000
0000
3CF0
3CF0
3CF0
3CF0
3CF0
3CF0
F3C0
F3C0
F3C0
F3C0
3FC0
3FC0
0F00
0F00
0F00
0F00
FC00
FC00
ENDCHAR
STARTCHAR char122
ENCODING 122
SWIDTH 994 0
DWIDTH 14 0
BBX 14 26 0 -6
BITMAP
0000
0000
0000
0000
0000
0000
0000
0000
3FF0
3FF0
00F0
00F0
0FC0
0FC0
3C00
3C00
F000
F000
FFC0
FFC0
0000
0000
0000
0000
0000
0000
ENDCHAR
STARTCHAR char123
ENCODING 123
SWIDTH 994 0
DWIDTH 14 0
BBX 14 26 0 -6
BITMAP
0000
0000
00FC
00FC
03C0
03C0
03C0
03C0
0F00
0F00
0F00
0F00
FC00
FC00
0F00
0F00
3C00
3C00
3C00
3C00
3C00
3C00
0FC0
0FC0
0000
0000
ENDCHAR
STARTCHAR char124
ENCODING 124
SWIDTH 994 0
DWIDTH 14 0
BBX 14 26 0 -6
BITMAP
0000
0000
03C0
03C0
03C0
03C0
03C0
03C0
0F00
0F00
0F00
0F00
0F00
0F00
0F00
0F00
0F00
0F00
3C00
3C00
3C00
3C00
3C00
3C00
0000
0000
ENDCHAR
STARTCHAR char125
ENCODING 125
SWIDTH 994 0
DWIDTH 14 0
BBX 14 26 0 -6
BITMAP
0000
0000
0FC0
0FC0
00F0
00F0
00F0
00F0
03C0
03C0
03C0
03C0
00FC
00FC
03C0
03C0
03C0
03C0
0F00
0F00
0F00
0F00
FC00
FC00
0000
0000
ENDCHAR
STARTCHAR char126
ENCODING 126
SWIDTH 994 0
DWIDTH 14 0
BBX 14 26 0 -6
BITMAP
0000
0000
0000
0000
0000
0000
0000
0000
0000
0000
3C30
3C30
FFF0
FFF0
C3C0
C3C0
0000
0000
0000
0000
0000
0000
0000
0000
0000
0000
ENDCHAR
STARTCHAR char127
ENCODING 127
SWIDTH 994 0
DWIDTH 14 0
BBX 14 26 0 -6
BITMAP
0000
0000
0000
0000
0000
0000
0000
0000
0000
0000
0000
0000
0000
0000
0000
0000
0000
0000
0000
0000
0000
0000
0000
0000
0000
0000
ENDCHAR
STARTCHAR char128
ENCODING 128
SWIDTH 994 0
DWIDTH 14 0
BBX 14 26 0 -6
BITMAP
0000
0000
0000
0000
0000
0000
03F0
03F0
0F3C
0F3C
FFC0
FFC0
3C00
3C00
FF00
FF00
3CF0
3CF0
0FC0
0FC0
0000
0000
0000
0000
0000
0000
ENDCHAR
STARTCHAR char129
ENCODING 129
SWIDTH 994 0
DWIDTH 14 0
BBX 14 26 0 -6
BITMAP
0000
0000
0000
0000
0000
0000
0000
0000
0000
0000
0000
0000
0000
0000
0000
0000
0000
0000
0000
0000
0000
0000
0000
0000
0000
0000
ENDCHAR
STARTCHAR char130
ENCODING 130
SWIDTH 994 0
DWIDTH 14 0
BBX 14 26 0 -6
BITMAP
0000
0000
0000
0000
0000
0000
0000
0000
0000
0000
0000
0000
0000
0000
0000
0000
03C0
03C0
03C0
03C0
0F00
0F00
3C00
3C00
0000
0000
ENDCHAR
STARTCHAR char131
ENCODING 131
SWIDTH 994 0
DWIDTH 14 0
BBX 14 26 0 -6
BITMAP
0000
0000
00FC
00FC
03C0
03C0
03C0
03C0
3FF0
3FF0
0F00
0F00
0F00
0F00
0F00
0F00
3C00
3C00
3C00
3C00
3C00
3C00
F000
F000
0000
0000
ENDCHAR
STARTCHAR char132
ENCODING 132
SWIDTH 994 0
DWIDTH 14 0
BBX 14 26 0 -6
BITMAP
0000
0000
0000
0000
0000
0000
0000
0000
0000
0000
0000
0000
0000
0000
0000
0000
3CF0
3CF0
3CF0
3CF0
3CF0
3CF0
0000
0000
0000
0000
ENDCHAR
STARTCHAR char133
ENCODING 133
SWIDTH 994 0
DWIDTH 14 0
BBX 14 26 0 -6
BITMAP
0000
0000
0000
0000
0000
0000
0000
0000
0000
0000
0000
0000
0000
0000
0000
0000
0000
0000
3330
3330
0000
0000
0000
0000
0000
0000
ENDCHAR
STARTCHAR char134
ENCODING 134
SWIDTH 994 0
DWIDTH 14 0
BBX 14 26 0 -6
BITMAP
0000
0000
03C0
03C0
03C0
03C0
3FF0
3FF0
0F00
0F00
0F00
0F00
0F00
0F00
0F00
0F00
3C00
3C00
3C00
3C00
0000
0000
0000
0000
0000
0000
ENDCHAR
STARTCHAR char135
ENCODING 135
SWIDTH 994 0
DWIDTH 14 0
BBX 14 26 0 -6
BITMAP
0000
0000
03C0
03C0
03C0
03C0
3FF0
3FF0
0F00
0F00
FFC0
FFC0
0F00
0F00
0F00
0F00
3C00
3C00
3C00
3C00
0000
0000
0000
0000
0000
0000
ENDCHAR
STARTCHAR char136
ENCODING 136
SWIDTH 994 0
DWIDTH 14 0
BBX 14 26 0 -6
BITMAP
0000
0000
0FC0
0FC0
3CF0
3CF0
F0F0
F0F0
0000
0000
0000
0000
0000
0000
0000
0000
0000
0000
0000
0000
0000
0000
0000
0000
0000
0000
ENDCHAR
STARTCHAR char137
ENCODING 137
SWIDTH 994 0
DWIDTH 14 0
BBX 14 26 0 -6
BITMAP
0000
0000
0000
0000
30C0
30C0
30C0
30C0
0300
0300
0300
0300
0C00
0C00
0C00
0C00
3330
3330
3330
3330
0000
0000
0000
0000
0000
0000
ENDCHAR
STARTCHAR char138
ENCODING 138
SWIDTH 994 0
DWIDTH 14 0
BBX 14 26 0 -6
BITMAP
3CF0
3CF0
0FC0
0FC0
0FF0
0FF0
3C3C
3C3C
3C00
3C00
0F00
0F00
03C0
03C0
03C0
03C0
F3C0
F3C0
3F00
3F00
0000
0000
0000
0000
0000
0000
ENDCHAR
STARTCHAR char139
ENCODING 139
SWIDTH 994 0
DWIDTH 14 0
BBX 14 26 0 -6
BITMAP
0000
0000
0000
0000
0000
0000
0000
0000
03C0
03C0
0F00
0F00
3C00
3C00
3C00
3C00
0F00
0F00
0000
0000
0000
0000
0000
0000
0000
0000
ENDCHAR
STARTCHAR char140
ENCODING 140
SWIDTH 994 0
DWIDTH 14 0
BBX 14 26 0 -6
BITMAP
0000
0000
0000
0000
0F3C
0F3C
3CF0
3CF0
3CC0
3CC0
F3F0
F3F0
F3C0
F3C0
CF00
CF00
CF00
CF00
33C0
33C0
0000
0000
0000
0000
0000
0000
ENDCHAR
STARTCHAR char141
ENCODING 141
SWIDTH 994 0
DWIDTH 14 0
BBX 14 26 0 -6
BITMAP
0000
0000
0000
0000
0000
0000
0000
0000
0000
0000
0000
0000
0000
0000
0000
0000
0000
0000
0000
0000
0000
0000
0000
0000
0000
0000
ENDCHAR
STARTCHAR char142
ENCODING 142
SWIDTH 994 0
DWIDTH 14 0
BBX 14 26 0 -6
BITMAP
0F3C
0F3C
03F0
03F0
0FFC
0FFC
00F0
00F0
03C0
03C0
0F00
0F00
3C00
3C00
3C00
3C00
F000
F000
FFC0
FFC0
0000
0000
0000
0000
0000
0000
ENDCHAR
STARTCHAR char143
ENCODING 143
SWIDTH 994 0
DWIDTH 14 0
BBX 14 26 0 -6
BITMAP
0000
0000
0000
0000
0000
0000
0000
0000
0000
0000
0000
0000
0000
0000
0000
0000
0000
0000
0000
0000
0000
0000
0000
0000
0000
0000
ENDCHAR
STARTCHAR char144
ENCODING 144
SWIDTH 994 0
DWIDTH 14 0
BBX 14 26 0 -6
BITMAP
0000
0000
0000
0000
0000
0000
0000
0000
0000
0000
0000
0000
0000
0000
0000
0000
0000
0000
0000
0000
0000
0000
0000
0000
0000
0000
ENDCHAR
STARTCHAR char145
ENCODING 145
SWIDTH 994 0
DWIDTH 14 0
BBX 14 26 0 -6
BITMAP
0000
0000
0F00
0F00
0F00
0F00
03C0
03C0
0000
0000
0000
0000
0000
0000
0000
0000
0000
0000
0000
0000
0000
0000
0000
0000
0000
0000
ENDCHAR
STARTCHAR char146
ENCODING 146
SWIDTH 994 0
DWIDTH 14 0
BBX 14 26 0 -6
BITMAP
0000
0000
0F00
0F00
0F00
0F00
3C00
3C00
0000
0000
0000
0000
0000
0000
0000
0000
0000
0000
0000
0000
0000
0000
0000
0000
0000
0000
ENDCHAR
STARTCHAR char147
ENCODING 147
SWIDTH 994 0
DWIDTH 14 0
BBX 14 26 0 -6
BITMAP
0000
0000
3CF0
3CF0
3CF0
3CF0
0F3C
0F3C
0000
0000
0000
0000
0000
0000
0000
0000
0000
0000
0000
0000
0000
0000
0000
0000
0000
0000
ENDCHAR
STARTCHAR char148
ENCODING 148
SWIDTH 994 0
DWIDTH 14 0
BBX 14 26 0 -6
BITMAP
0000
0000
0F3C
0F3C
0F3C
0F3C
3CF0
3CF0
0000
0000
0000
0000
0000
0000
0000
0000
0000
0000
0000
0000
0000
0000
0000
0000
0000
0000
ENDCHAR
STARTCHAR char149
ENCODING 149
SWIDTH 994 0
DWIDTH 14 0
BBX 14 26 0 -6
BITMAP
0000
0000
0000
0000
0000
0000
0000
0000
0F00
0F00
3FC0
3FC0
FFF0
FFF0
3FC0
3FC0
0F00
0F00
0000
0000
0000
0000
0000
0000
0000
0000
ENDCHAR
STARTCHAR char150
ENCODING 150
SWIDTH 994 0
DWIDTH 14 0
BBX 14 26 0 -6
BITMAP
0000
0000
0000
0000
0000
0000
0000
0000
0000
0000
0000
0000
FFF0
FFF0
0000
0000
0000
0000
0000
0000
0000
0000
0000
0000
0000
0000
ENDCHAR
STARTCHAR char151
ENCODING 151
SWIDTH 994 0
DWIDTH 14 0
BBX 14 26 0 -6
BITMAP
0000
0000
0000
0000
0000
0000
0000
0000
0000
0000
0000
0000
FFFC
FFFC
0000
0000
0000
0000
0000
0000
0000
0000
0000
0000
0000
0000
ENDCHAR
STARTCHAR char152
ENCODING 152
SWIDTH 994 0
DWIDTH 14 0
BBX 14 26 0 -6
BITMAP
0000
0000
0000
0000
0FCC
0FCC
33F0
33F0
0000
0000
0000
0000
0000
0000
0000
0000
0000
0000
0000
0000
0000
0000
0000
0000
0000
0000
ENDCHAR
STARTCHAR char153
ENCODING 153
SWIDTH 994 0
DWIDTH 14 0
BBX 14 26 0 -6
BITMAP
0000
0000
0000
0000
3FF0
3FF0
0CF0
0CF0
0CF0
0CF0
0CF0
0CF0
0000
0000
0000
0000
0000
0000
0000
0000
0000
0000
0000
0000
0000
0000
ENDCHAR
STARTCHAR char154
ENCODING 154
SWIDTH 994 0
DWIDTH 14 0
BBX 14 26 0 -6
BITMAP
0000
0000
0F3C
0F3C
03F0
03F0
0000
0000
0FC0
0FC0
3CF0
3CF0
0F00
0F00
03C0
03C0
F3C0
F3C0
3F00
3F00
0000
0000
0000
0000
0000
0000
ENDCHAR
STARTCHAR char155
ENCODING 155
SWIDTH 994 0
DWIDTH 14 0
BBX 14 26 0 -6
BITMAP
0000
0000
0000
0000
0000
0000
0000
0000
0F00
0F00
03C0
03C0
03C0
03C0
0F00
0F00
3C00
3C00
0000
0000
0000
0000
0000
0000
0000
0000
ENDCHAR
STARTCHAR char156
ENCODING 156
SWIDTH 994 0
DWIDTH 14 0
BBX 14 26 0 -6
BITMAP
0000
0000
0000
0000
0000
0000
0000
0000
3CC0
3CC0
F330
F330
CFF0
CFF0
CF00
CF00
FCF0
FCF0
33C0
33C0
0000
0000
0000
0000
0000
0000
ENDCHAR
STARTCHAR char157
ENCODING 157
SWIDTH 994 0
DWIDTH 14 0
BBX 14 26 0 -6
BITMAP
0000
0000
0000
0000
0000
0000
0000
0000
0000
0000
0000
0000
0000
0000
0000
0000
0000
0000
0000
0000
0000
0000
0000
0000
0000
0000
ENDCHAR
STARTCHAR char158
ENCODING 158
SWIDTH 994 0
DWIDTH 14 0
BBX 14 26 0 -6
BITMAP
0000
0000
3CF0
3CF0
0FC0
0FC0
0000
0000
3FF0
3FF0
03C0
03C0
0F00
0F00
3C00
3C00
F000
F000
FFC0
FFC0
0000
0000
0000
0000
0000
0000
ENDCHAR
STARTCHAR char159
ENCODING 159
SWIDTH 994 0
DWIDTH 14 0
BBX 14 26 0 -6
BITMAP
0F3C
0F3C
0000
0000
3C3C
3C3C
3C3C
3C3C
3CF0
3CF0
3FC0
3FC0
0F00
0F00
0F00
0F00
3C00
3C00
3C00
3C00
0000
0000
0000
0000
0000
0000
ENDCHAR
STARTCHAR char160
ENCODING 160
SWIDTH 994 0
DWIDTH 14 0
BBX 14 26 0 -6
BITMAP
0000
0000
0000
0000
0000
0000
0000
0000
0000
0000
0000
0000
0000
0000
0000
0000
0000
0000
0000
0000
0000
0000
0000
0000
0000
0000
ENDCHAR
STARTCHAR char161
ENCODING 161
SWIDTH 994 0
DWIDTH 14 0
BBX 14 26 0 -6
BITMAP
0000
0000
0000
0000
03C0
03C0
03C0
03C0
0000
0000
0F00
0F00
0F00
0F00
3C00
3C00
3C00
3C00
3C00
3C00
0000
0000
0000
0000
0000
0000
ENDCHAR
STARTCHAR char162
ENCODING 162
SWIDTH 994 0
DWIDTH 14 0
BBX 14 26 0 -6
BITMAP
0000
0000
0000
0000
0300
0300
0300
0300
0FC0
0FC0
3CF0
3CF0
3C00
3C00
FC00
FC00
F3C0
F3C0
3F00
3F00
0C00
0C00
0C00
0C00
0000
0000
ENDCHAR
STARTCHAR char163
ENCODING 163
SWIDTH 994 0
DWIDTH 14 0
BBX 14 26 0 -6
BITMAP
0000
0000
0000
0000
03F0
03F0
0F00
0F00
0F00
0F00
FFC0
FFC0
3C00
3C00
3C00
3C00
F000
F000
FFF0
FFF0
0000
0000
0000
0000
0000
0000
ENDCHAR
STARTCHAR char164
ENCODING 164
SWIDTH 994 0
DWIDTH 14 0
BBX 14 26 0 -6
BITMAP
0000
0000
0000
0000
0000
0000
0000
0000
F0F0
F0F0
3FC0
3FC0
3CC0
3CC0
3CC0
3CC0
3FC0
3FC0
F0F0
F0F0
0000
0000
0000
0000
0000
0000
ENDCHAR
STARTCHAR char165
ENCODING 165
SWIDTH 994 0
DWIDTH 14 0
BBX 14 26 0 -6
BITMAP
0000
0000
0000
0000
3C3C
3C3C
3C3C
3C3C
3CF0
3CF0
3FC0
3FC0
0F00
0F00
FFF0
FFF0
3C00
3C00
3C00
3C00
0000
0000
0000
0000
0000
0000
ENDCHAR
STARTCHAR char166
ENCODING 166
SWIDTH 994 0
DWIDTH 14 0
BBX 14 26 0 -6
BITMAP
0000
0000
00F0
00F0
00F0
00F0
03C0
03C0
03C0
03C0
03C0
03C0
0000
0000
0F00
0F00
0F00
0F00
0F00
0F00
3C00
3C00
3C00
3C00
0000
0000
ENDCHAR
STARTCHAR char167
ENCODING 167
SWIDTH 994 0
DWIDTH 14 0
BBX 14 26 0 -6
BITMAP
0000
0000
0FF0
0FF0
3C3C
3C3C
3C00
3C00
0FC0
0FC0
3CF0
3CF0
0FC0
0FC0
03C0
03C0
F3C0
F3C0
3F00
3F00
0000
0000
0000
0000
0000
0000
ENDCHAR
STARTCHAR char168
ENCODING 168
SWIDTH 994 0
DWIDTH 14 0
BBX 14 26 0 -6
BITMAP
0000
0000
3CF0
3CF0
0000
0000
0000
0000
0000
0000
0000
0000
0000
0000
0000
0000
0000
0000
0000
0000
0000
0000
0000
0000
0000
0000
ENDCHAR
STARTCHAR char169
ENCODING 169
SWIDTH 994 0
DWIDTH 14 0
BBX 14 26 0 -6
BITMAP
0000
0000
0000
0000
03F0
03F0
0FFC
0FFC
3C3C
3C3C
33FC
33FC
CFF0
CFF0
F0F0
F0F0
FFC0
FFC0
3F00
3F00
0000
0000
0000
0000
0000
0000
ENDCHAR
STARTCHAR char170
ENCODING 170
SWIDTH 994 0
DWIDTH 14 0
BBX 14 26 0 -6
BITMAP
0000
0000
0000
0000
3F00
3F00
03C0
03C0
3FC0
3FC0
F3C0
F3C0
3FC0
3FC0
0000
0000
0000
0000
0000
0000
0000
0000
0000
0000
0000
0000
ENDCHAR
STARTCHAR char171
ENCODING 171
SWIDTH 994 0
DWIDTH 14 0
BBX 14 26 0 -6
BITMAP
0000
0000
0000
0000
0000
0000
0000
0000
0F30
0F30
3CC0
3CC0
F300
F300
F300
F300
3CC0
3CC0
0000
0000
0000
0000
0000
0000
0000
0000
ENDCHAR
STARTCHAR char172
ENCODING 172
SWIDTH 994 0
DWIDTH 14 0
BBX 14 26 0 -6
BITMAP
0000
0000
0000
0000
0000
0000
0000
0000
0000
0000
0000
0000
FFC0
FFC0
03C0
03C0
0F00
0F00
0F00
0F00
0000
0000
0000
0000
0000
0000
ENDCHAR
STARTCHAR char173
ENCODING 173
SWIDTH 994 0
DWIDTH 14 0
BBX 14 26 0 -6
BITMAP
0000
0000
0000
0000
0000
0000
0000
0000
0000
0000
0000
0000
0000
0000
0000
0000
0000
0000
0000
0000
0000
0000
0000
0000
0000
0000
ENDCHAR
STARTCHAR char174
ENCODING 174
SWIDTH 994 0
DWIDTH 14 0
BBX 14 26 0 -6
BITMAP
0000
0000
0000
0000
03F0
03F0
0C3C
0C3C
33CC
33CC
303C
303C
F0F0
F0F0
CCC0
CCC0
CCC0
CCC0
3F00
3F00
0000
0000
0000
0000
0000
0000
ENDCHAR
STARTCHAR char175
ENCODING 175
SWIDTH 994 0
DWIDTH 14 0
BBX 14 26 0 -6
BITMAP
FFFC
FFFC
0000
0000
0000
0000
0000
0000
0000
0000
0000
0000
0000
0000
0000
0000
0000
0000
0000
0000
0000
0000
0000
0000
0000
0000
ENDCHAR
STARTCHAR char176
ENCODING 176
SWIDTH 994 0
DWIDTH 14 0
BBX 14 26 0 -6
BITMAP
0000
0000
3F00
3F00
F3C0
F3C0
F3C0
F3C0
3F00
3F00
0000
0000
0000
0000
0000
0000
0000
0000
0000
0000
0000
0000
0000
0000
0000
0000
ENDCHAR
STARTCHAR char177
ENCODING 177
SWIDTH 994 0
DWIDTH 14 0
BBX 14 26 0 -6
BITMAP
0000
0000
0000
0000
0000
0000
0F00
0F00
0F00
0F00
FFC0
FFC0
3C00
3C00
3C00
3C00
0000
0000
FFC0
FFC0
0000
0000
0000
0000
0000
0000
ENDCHAR
STARTCHAR char178
ENCODING 178
SWIDTH 994 0
DWIDTH 14 0
BBX 14 26 0 -6
BITMAP
0000
0000
FF00
FF00
03C0
03C0
0F00
0F00
3C00
3C00
FFC0
FFC0
0000
0000
0000
0000
0000
0000
0000
0000
0000
0000
0000
0000
0000
0000
ENDCHAR
STARTCHAR char179
ENCODING 179
SWIDTH 994 0
DWIDTH 14 0
BBX 14 26 0 -6
BITMAP
0000
0000
FF00
FF00
03C0
03C0
3F00
3F00
03C0
03C0
FF00
FF00
0000
0000
0000
0000
0000
0000
0000
0000
0000
0000
0000
0000
0000
0000
ENDCHAR
STARTCHAR char180
ENCODING 180
SWIDTH 994 0
DWIDTH 14 0
BBX 14 26 0 -6
BITMAP
0000
0000
03C0
03C0
0F00
0F00
0000
0000
0000
0000
0000
0000
0000
0000
0000
0000
0000
0000
0000
0000
0000
0000
0000
0000
0000
0000
ENDCHAR
STARTCHAR char181
ENCODING 181
SWIDTH 994 0
DWIDTH 14 0
BBX 14 26 0 -6
BITMAP
0000
0000
0000
0000
0000
0000
0000
0000
0F3C
0F3C
0F3C
0F3C
0F3C
0F3C
3CF0
3CF0
3FF0
3FF0
3CC0
3CC0
3C00
3C00
F000
F000
0000
0000
ENDCHAR
STARTCHAR char182
ENCODING 182
SWIDTH 994 0
DWIDTH 14 0
BBX 14 26 0 -6
BITMAP
0000
0000
0000
0000
0FF0
0FF0
3F30
3F30
3F30
3F30
0F30
0F30
0330
0330
0330
0330
0330
0330
0330
0330
0330
0330
0000
0000
0000
0000
ENDCHAR
STARTCHAR char183
ENCODING 183
SWIDTH 994 0
DWIDTH 14 0
BBX 14 26 0 -6
BITMAP
0000
0000
0000
0000
0000
0000
0000
0000
0000
0000
0300
0300
0FC0
0FC0
0300
0300
0000
0000
0000
0000
0000
0000
0000
0000
0000
0000
ENDCHAR
STARTCHAR char184
ENCODING 184
SWIDTH 994 0
DWIDTH 14 0
BBX 14 26 0 -6
BITMAP
0000
0000
0000
0000
0000
0000
0000
0000
0000
0000
0000
0000
0000
0000
0000
0000
0000
0000
0FC0
0FC0
03C0
03C0
0F00
0F00
0000
0000
ENDCHAR
STARTCHAR char185
ENCODING 185
SWIDTH 994 0
DWIDTH 14 0
BBX 14 26 0 -6
BITMAP
0000
0000
3C00
3C00
FC00
FC00
3C00
3C00
3C00
3C00
FF00
FF00
0000
0000
0000
0000
0000
0000
0000
0000
0000
0000
0000
0000
0000
0000
ENDCHAR
STARTCHAR char186
ENCODING 186
SWIDTH 994 0
DWIDTH 14 0
BBX 14 26 0 -6
BITMAP
0000
0000
3F00
3F00
F3C0
F3C0
F3C0
F3C0
F3C0
F3C0
3F00
3F00
0000
0000
0000
0000
0000
0000
0000
0000
0000
0000
0000
0000
0000
0000
ENDCHAR
STARTCHAR char187
ENCODING 187
SWIDTH 994 0
DWIDTH 14 0
BBX 14 26 0 -6
BITMAP
0000
0000
0000
0000
0000
0000
0000
0000
3CC0
3CC0
0F30
0F30
0F30
0F30
3CC0
3CC0
F300
F300
0000
0000
0000
0000
0000
0000
0000
0000
ENDCHAR
STARTCHAR char188
ENCODING 188
SWIDTH 994 0
DWIDTH 14 0
BBX 14 26 0 -6
BITMAP
0000
0000
3030
3030
30C0
30C0
30C0
30C0
3300
3300
0300
0300
0C30
0C30
0CF0
0CF0
33F0
33F0
3030
3030
0000
0000
0000
0000
0000
0000
ENDCHAR
STARTCHAR char189
ENCODING 189
SWIDTH 994 0
DWIDTH 14 0
BBX 14 26 0 -6
BITMAP
0000
0000
3030
3030
30C0
30C0
30C0
30C0
3300
3300
0300
0300
0CC0
0CC0
0C30
0C30
30C0
30C0
30F0
30F0
0000
0000
0000
0000
0000
0000
ENDCHAR
STARTCHAR char190
ENCODING 190
SWIDTH 994 0
DWIDTH 14 0
BBX 14 26 0 -6
BITMAP
0000
0000
3C30
3C30
0CC0
0CC0
30C0
30C0
0F00
0F00
3F00
3F00
0C30
0C30
0CF0
0CF0
33F0
33F0
3030
3030
0000
0000
0000
0000
0000
0000
ENDCHAR
STARTCHAR char191
ENCODING 191
SWIDTH 994 0
DWIDTH 14 0
BBX 14 26 0 -6
BITMAP
0000
0000
0000
0000
03C0
03C0
03C0
03C0
0000
0000
0F00
0F00
3C00
3C00
F000
F000
F0F0
F0F0
3FC0
3FC0
0000
0000
0000
0000
0000
0000
ENDCHAR
STARTCHAR char192
ENCODING 192
SWIDTH 994 0
DWIDTH 14 0
BBX 14 26 0 -6
BITMAP
03C0
03C0
00F0
00F0
0000
0000
00FC
00FC
03FC
03FC
0F3C
0F3C
3FF0
3FF0
3CF0
3CF0
F0F0
F0F0
F0F0
F0F0
0000
0000
0000
0000
0000
0000
ENDCHAR
STARTCHAR char193
ENCODING 193
SWIDTH 994 0
DWIDTH 14 0
BBX 14 26 0 -6
BITMAP
003C
003C
00F0
00F0
0000
0000
00FC
00FC
03FC
03FC
0F3C
0F3C
3FF0
3FF0
3CF0
3CF0
F0F0
F0F0
F0F0
F0F0
0000
0000
0000
0000
0000
0000
ENDCHAR
STARTCHAR char194
ENCODING 194
SWIDTH 994 0
DWIDTH 14 0
BBX 14 26 0 -6
BITMAP
03F0
03F0
0F3C
0F3C
0000
0000
00FC
00FC
03FC
03FC
0F3C
0F3C
3FF0
3FF0
3CF0
3CF0
F0F0
F0F0
F0F0
F0F0
0000
0000
0000
0000
0000
0000
ENDCHAR
STARTCHAR char195
ENCODING 195
SWIDTH 994 0
DWIDTH 14 0
BBX 14 26 0 -6
BITMAP
03CC
03CC
0CF0
0CF0
0000
0000
00FC
00FC
03FC
03FC
0F3C
0F3C
3FF0
3FF0
3CF0
3CF0
F0F0
F0F0
F0F0
F0F0
0000
0000
0000
0000
0000
0000
ENDCHAR
STARTCHAR char196
ENCODING 196
SWIDTH 994 0
DWIDTH 14 0
BBX 14 26 0 -6
BITMAP
0000
0000
0F3C
0F3C
0000
0000
00FC
00FC
03FC
03FC
0F3C
0F3C
3FF0
3FF0
3CF0
3CF0
F0F0
F0F0
F0F0
F0F0
0000
0000
0000
0000
0000
0000
ENDCHAR
STARTCHAR char197
ENCODING 197
SWIDTH 994 0
DWIDTH 14 0
BBX 14 26 0 -6
BITMAP
03F0
03F0
0F3C
0F3C
03F0
03F0
03FC
03FC
0F3C
0F3C
0F3C
0F3C
3FF0
3FF0
3CF0
3CF0
F0F0
F0F0
F0F0
F0F0
0000
0000
0000
0000
0000
0000
ENDCHAR
STARTCHAR char198
ENCODING 198
SWIDTH 994 0
DWIDTH 14 0
BBX 14 26 0 -6
BITMAP
0000
0000
0000
0000
03FC
03FC
0FF0
0FF0
0CC0
0CC0
3CF0
3CF0
3FC0
3FC0
F3C0
F3C0
F3C0
F3C0
F3F0
F3F0
0000
0000
0000
0000
0000
0000
ENDCHAR
STARTCHAR char199
ENCODING 199
SWIDTH 994 0
DWIDTH 14 0
BBX 14 26 0 -6
BITMAP
0000
0000
0000
0000
03F0
03F0
0F3C
0F3C
3C00
3C00
3C00
3C00
F000
F000
F000
F000
F3C0
F3C0
3F00
3F00
3C00
3C00
3C00
3C00
F000
F000
ENDCHAR
STARTCHAR char200
ENCODING 200
SWIDTH 994 0
DWIDTH 14 0
BBX 14 26 0 -6
BITMAP
03C0
03C0
00F0
00F0
0000
0000
0FFC
0FFC
0F00
0F00
3C00
3C00
3FC0
3FC0
3C00
3C00
F000
F000
FFC0
FFC0
0000
0000
0000
0000
0000
0000
ENDCHAR
STARTCHAR char201
ENCODING 201
SWIDTH 994 0
DWIDTH 14 0
BBX 14 26 0 -6
BITMAP
003C
003C
00F0
00F0
0000
0000
0FFC
0FFC
0F00
0F00
3C00
3C00
3FC0
3FC0
3C00
3C00
F000
F000
FFC0
FFC0
0000
0000
0000
0000
0000
0000
ENDCHAR
STARTCHAR char202
ENCODING 202
SWIDTH 994 0
DWIDTH 14 0
BBX 14 26 0 -6
BITMAP
03F0
03F0
0F3C
0F3C
0000
0000
0FFC
0FFC
0F00
0F00
3C00
3C00
3FC0
3FC0
3C00
3C00
F000
F000
FFC0
FFC0
0000
0000
0000
0000
0000
0000
ENDCHAR
STARTCHAR char203
ENCODING 203
SWIDTH 994 0
DWIDTH 14 0
BBX 14 26 0 -6
BITMAP
0000
0000
0F3C
0F3C
0000
0000
0FFC
0FFC
0F00
0F00
3C00
3C00
3FC0
3FC0
3C00
3C00
F000
F000
FFC0
FFC0
0000
0000
0000
0000
0000
0000
ENDCHAR
STARTCHAR char204
ENCODING 204
SWIDTH 994 0
DWIDTH 14 0
BBX 14 26 0 -6
BITMAP
03C0
03C0
00F0
00F0
0000
0000
0FF0
0FF0
03C0
03C0
0F00
0F00
0F00
0F00
3C00
3C00
3C00
3C00
FF00
FF00
0000
0000
0000
0000
0000
0000
ENDCHAR
STARTCHAR char205
ENCODING 205
SWIDTH 994 0
DWIDTH 14 0
BBX 14 26 0 -6
BITMAP
003C
003C
00F0
00F0
0000
0000
0FF0
0FF0
03C0
03C0
0F00
0F00
0F00
0F00
3C00
3C00
3C00
3C00
FF00
FF00
0000
0000
0000
0000
0000
0000
ENDCHAR
STARTCHAR char206
ENCODING 206
SWIDTH 994 0
DWIDTH 14 0
BBX 14 26 0 -6
BITMAP
03F0
03F0
0F3C
0F3C
0000
0000
0FF0
0FF0
03C0
03C0
0F00
0F00
0F00
0F00
3C00
3C00
3C00
3C00
FF00
FF00
0000
0000
0000
0000
0000
0000
ENDCHAR
STARTCHAR char207
ENCODING 207
SWIDTH 994 0
DWIDTH 14 0
BBX 14 26 0 -6
BITMAP
0000
0000
0F3C
0F3C
0000
0000
0FF0
0FF0
03C0
03C0
0F00
0F00
0F00
0F00
3C00
3C00
3C00
3C00
FF00
FF00
0000
0000
0000
0000
0000
0000
ENDCHAR
STARTCHAR char208
ENCODING 208
SWIDTH 994 0
DWIDTH 14 0
BBX 14 26 0 -6
BITMAP
0000
0000
0000
0000
0000
0000
0FC0
0FC0
0F30
0F30
0F30
0F30
FFF0
FFF0
3CC0
3CC0
3CC0
3CC0
3F00
3F00
0000
0000
0000
0000
0000
0000
ENDCHAR
STARTCHAR char209
ENCODING 209
SWIDTH 994 0
DWIDTH 14 0
BBX 14 26 0 -6
BITMAP
03CC
03CC
0CF0
0CF0
0000
0000
3C3C
3C3C
3C3C
3C3C
3F3C
3F3C
3F3C
3F3C
F3F0
F3F0
F0F0
F0F0
F0F0
F0F0
0000
0000
0000
0000
0000
0000
ENDCHAR
STARTCHAR char210
ENCODING 210
SWIDTH 994 0
DWIDTH 14 0
BBX 14 26 0 -6
BITMAP
03C0
03C0
00F0
00F0
0000
0000
03F0
03F0
0F3C
0F3C
3C3C
3C3C
3CF0
3CF0
F0F0
F0F0
F3C0
F3C0
3F00
3F00
0000
0000
0000
0000
0000
0000
ENDCHAR
STARTCHAR char211
ENCODING 211
SWIDTH 994 0
DWIDTH 14 0
BBX 14 26 0 -6
BITMAP
003C
003C
00F0
00F0
0000
0000
03F0
03F0
0F3C
0F3C
3C3C
3C3C
3CF0
3CF0
F0F0
F0F0
F3C0
F3C0
3F00
3F00
0000
0000
0000
0000
0000
0000
ENDCHAR
STARTCHAR char212
ENCODING 212
SWIDTH 994 0
DWIDTH 14 0
BBX 14 26 0 -6
BITMAP
03F0
03F0
0F3C
0F3C
0000
0000
03F0
03F0
0F3C
0F3C
3C3C
3C3C
3CF0
3CF0
F0F0
F0F0
F3C0
F3C0
3F00
3F00
0000
0000
0000
0000
0000
0000
ENDCHAR
STARTCHAR char213
ENCODING 213
SWIDTH 994 0
DWIDTH 14 0
BBX 14 26 0 -6
BITMAP
03CC
03CC
0CF0
0CF0
0000
0000
03F0
03F0
0F3C
0F3C
3C3C
3C3C
3CF0
3CF0
F0F0
F0F0
F3C0
F3C0
3F00
3F00
0000
0000
0000
0000
0000
0000
ENDCHAR
STARTCHAR char214
ENCODING 214
SWIDTH 994 0
DWIDTH 14 0
BBX 14 26 0 -6
BITMAP
0000
0000
0F3C
0F3C
0000
0000
03F0
03F0
0F3C
0F3C
3C3C
3C3C
3CF0
3CF0
F0F0
F0F0
F3C0
F3C0
3F00
3F00
0000
0000
0000
0000
0000
0000
ENDCHAR
STARTCHAR char215
ENCODING 215
SWIDTH 994 0
DWIDTH 14 0
BBX 14 26 0 -6
BITMAP
0000
0000
0000
0000
0000
0000
0000
0000
3CF0
3CF0
3FC0
3FC0
0F00
0F00
3FC0
3FC0
F3C0
F3C0
0000
0000
0000
0000
0000
0000
0000
0000
ENDCHAR
STARTCHAR char216
ENCODING 216
SWIDTH 994 0
DWIDTH 14 0
BBX 14 26 0 -6
BITMAP
0000
0000
0030
0030
03F0
03F0
0FC0
0FC0
3CF0
3CF0
3CF0
3CF0
F3C0
F3C0
F3C0
F3C0
3F00
3F00
FC00
FC00
C000
C000
0000
0000
0000
0000
ENDCHAR
STARTCHAR char217
ENCODING 217
SWIDTH 994 0
DWIDTH 14 0
BBX 14 26 0 -6
BITMAP
03C0
03C0
00F0
00F0
0000
0000
0F3C
0F3C
0F3C
0F3C
3CF0
3CF0
3CF0
3CF0
F3C0
F3C0
F3C0
F3C0
3F00
3F00
0000
0000
0000
0000
0000
0000
ENDCHAR
STARTCHAR char218
ENCODING 218
SWIDTH 994 0
DWIDTH 14 0
BBX 14 26 0 -6
BITMAP
003C
003C
00F0
00F0
0000
0000
0F3C
0F3C
0F3C
0F3C
3CF0
3CF0
3CF0
3CF0
F3C0
F3C0
F3C0
F3C0
3F00
3F00
0000
0000
0000
0000
0000
0000
ENDCHAR
STARTCHAR char219
ENCODING 219
SWIDTH 994 0
DWIDTH 14 0
BBX 14 26 0 -6
BITMAP
03F0
03F0
0F3C
0F3C
0000
0000
0F3C
0F3C
0F3C
0F3C
3CF0
3CF0
3CF0
3CF0
F3C0
F3C0
F3C0
F3C0
3F00
3F00
0000
0000
0000
0000
0000
0000
ENDCHAR
STARTCHAR char220
ENCODING 220
SWIDTH 994 0
DWIDTH 14 0
BBX 14 26 0 -6
BITMAP
0000
0000
0F3C
0F3C
0000
0000
0F3C
0F3C
0F3C
0F3C
3CF0
3CF0
3CF0
3CF0
F3C0
F3C0
F3C0
F3C0
3F00
3F00
0000
0000
0000
0000
0000
0000
ENDCHAR
STARTCHAR char221
ENCODING 221
SWIDTH 994 0
DWIDTH 14 0
BBX 14 26 0 -6
BITMAP
00F0
00F0
03C0
03C0
0000
0000
3C3C
3C3C
3C3C
3C3C
3CF0
3CF0
3FC0
3FC0
0F00
0F00
3C00
3C00
3C00
3C00
0000
0000
0000
0000
0000
0000
ENDCHAR
STARTCHAR char222
ENCODING 222
SWIDTH 994 0
DWIDTH 14 0
BBX 14 26 0 -6
BITMAP
0000
0000
0000
0000
0F00
0F00
0F00
0F00
3FC0
3FC0
3CF0
3CF0
3CF0
3CF0
FFC0
FFC0
F000
F000
F000
F000
0000
0000
0000
0000
0000
0000
ENDCHAR
STARTCHAR char223
ENCODING 223
SWIDTH 994 0
DWIDTH 14 0
BBX 14 26 0 -6
BITMAP
0000
0000
00FC
00FC
03CC
03CC
033C
033C
0FF0
0FF0
0F30
0F30
0F30
0F30
3CF0
3CF0
3CC0
3CC0
3FC0
3FC0
F000
F000
0000
0000
0000
0000
ENDCHAR
STARTCHAR char224
ENCODING 224
SWIDTH 994 0
DWIDTH 14 0
BBX 14 26 0 -6
BITMAP
0000
0000
0F00
0F00
03C0
03C0
0000
0000
0FC0
0FC0
00F0
00F0
3FF0
3FF0
F0F0
F0F0
F3C0
F3C0
3FC0
3FC0
0000
0000
0000
0000
0000
0000
ENDCHAR
STARTCHAR char225
ENCODING 225
SWIDTH 994 0
DWIDTH 14 0
BBX 14 26 0 -6
BITMAP
0000
0000
00F0
00F0
03C0
03C0
0000
0000
0FC0
0FC0
00F0
00F0
3FF0
3FF0
F0F0
F0F0
F3C0
F3C0
3FC0
3FC0
0000
0000
0000
0000
0000
0000
ENDCHAR
STARTCHAR char226
ENCODING 226
SWIDTH 994 0
DWIDTH 14 0
BBX 14 26 0 -6
BITMAP
0000
0000
03F0
03F0
0F3C
0F3C
0000
0000
0FC0
0FC0
00F0
00F0
3FF0
3FF0
F0F0
F0F0
F3C0
F3C0
3FC0
3FC0
0000
0000
0000
0000
0000
0000
ENDCHAR
STARTCHAR char227
ENCODING 227
SWIDTH 994 0
DWIDTH 14 0
BBX 14 26 0 -6
BITMAP
0000
0000
03CC
03CC
0CF0
0CF0
0000
0000
0FC0
0FC0
00F0
00F0
3FF0
3FF0
F0F0
F0F0
F3C0
F3C0
3FC0
3FC0
0000
0000
0000
0000
0000
0000
ENDCHAR
STARTCHAR char228
ENCODING 228
SWIDTH 994 0
DWIDTH 14 0
BBX 14 26 0 -6
BITMAP
0000
0000
0F3C
0F3C
0000
0000
0000
0000
0FC0
0FC0
00F0
00F0
3FF0
3FF0
F0F0
F0F0
F3C0
F3C0
3FC0
3FC0
0000
0000
0000
0000
0000
0000
ENDCHAR
STARTCHAR char229
ENCODING 229
SWIDTH 994 0
DWIDTH 14 0
BBX 14 26 0 -6
BITMAP
03F0
03F0
0F3C
0F3C
03F0
03F0
0000
0000
0FC0
0FC0
00F0
00F0
3FF0
3FF0
F0F0
F0F0
F3C0
F3C0
3FC0
3FC0
0000
0000
0000
0000
0000
0000
ENDCHAR
STARTCHAR char230
ENCODING 230
SWIDTH 994 0
DWIDTH 14 0
BBX 14 26 0 -6
BITMAP
0000
0000
0000
0000
0000
0000
0000
0000
3CF0
3CF0
033C
033C
3FF0
3FF0
CF00
CF00
CF30
CF30
3CC0
3CC0
0000
0000
0000
0000
0000
0000
ENDCHAR
STARTCHAR char231
ENCODING 231
SWIDTH 994 0
DWIDTH 14 0
BBX 14 26 0 -6
BITMAP
0000
0000
0000
0000
0000
0000
0000
0000
0FC0
0FC0
3CF0
3CF0
3C00
3C00
F000
F000
F3C0
F3C0
3F00
3F00
3C00
3C00
3C00
3C00
F000
F000
ENDCHAR
STARTCHAR char232
ENCODING 232
SWIDTH 994 0
DWIDTH 14 0
BBX 14 26 0 -6
BITMAP
0000
0000
0F00
0F00
03C0
03C0
0000
0000
0FC0
0FC0
3CF0
3CF0
3FF0
3FF0
F000
F000
F3C0
F3C0
3F00
3F00
0000
0000
0000
0000
0000
0000
ENDCHAR
STARTCHAR char233
ENCODING 233
SWIDTH 994 0
DWIDTH 14 0
BBX 14 26 0 -6
BITMAP
0000
0000
00F0
00F0
03C0
03C0
0000
0000
0FC0
0FC0
3CF0
3CF0
3FF0
3FF0
F000
F000
F3C0
F3C0
3F00
3F00
0000
0000
0000
0000
0000
0000
ENDCHAR
STARTCHAR char234
ENCODING 234
SWIDTH 994 0
DWIDTH 14 0
BBX 14 26 0 -6
BITMAP
0000
0000
03F0
03F0
0F3C
0F3C
0000
0000
0FC0
0FC0
3CF0
3CF0
3FF0
3FF0
F000
F000
F3C0
F3C0
3F00
3F00
0000
0000
0000
0000
0000
0000
ENDCHAR
STARTCHAR char235
ENCODING 235
SWIDTH 994 0
DWIDTH 14 0
BBX 14 26 0 -6
BITMAP
0000
0000
0F3C
0F3C
0000
0000
0000
0000
0FC0
0FC0
3CF0
3CF0
3FF0
3FF0
F000
F000
F3C0
F3C0
3F00
3F00
0000
0000
0000
0000
0000
0000
ENDCHAR
STARTCHAR char236
ENCODING 236
SWIDTH 994 0
DWIDTH 14 0
BBX 14 26 0 -6
BITMAP
0000
0000
0F00
0F00
03C0
03C0
0000
0000
0FC0
0FC0
03C0
03C0
03C0
03C0
0F00
0F00
0F00
0F00
3FC0
3FC0
0000
0000
0000
0000
0000
0000
ENDCHAR
STARTCHAR char237
ENCODING 237
SWIDTH 994 0
DWIDTH 14 0
BBX 14 26 0 -6
BITMAP
0000
0000
00F0
00F0
03C0
03C0
0000
0000
0FC0
0FC0
03C0
03C0
03C0
03C0
0F00
0F00
0F00
0F00
3FC0
3FC0
0000
0000
0000
0000
0000
0000
ENDCHAR
STARTCHAR char238
ENCODING 238
SWIDTH 994 0
DWIDTH 14 0
BBX 14 26 0 -6
BITMAP
0000
0000
03F0
03F0
0F3C
0F3C
0000
0000
0FC0
0FC0
03C0
03C0
03C0
03C0
0F00
0F00
0F00
0F00
3FC0
3FC0
0000
0000
0000
0000
0000
0000
ENDCHAR
STARTCHAR char239
ENCODING 239
SWIDTH 994 0
DWIDTH 14 0
BBX 14 26 0 -6
BITMAP
0000
0000
0F3C
0F3C
0000
0000
0000
0000
0FC0
0FC0
03C0
03C0
03C0
03C0
0F00
0F00
0F00
0F00
3FC0
3FC0
0000
0000
0000
0000
0000
0000
ENDCHAR
STARTCHAR char240
ENCODING 240
SWIDTH 994 0
DWIDTH 14 0
BBX 14 26 0 -6
BITMAP
0000
0000
0FCC
0FCC
00F0
00F0
033C
033C
003C
003C
0FF0
0FF0
3CF0
3CF0
F3C0
F3C0
F3C0
F3C0
3F00
3F00
0000
0000
0000
0000
0000
0000
ENDCHAR
STARTCHAR char241
ENCODING 241
SWIDTH 994 0
DWIDTH 14 0
BBX 14 26 0 -6
BITMAP
0000
0000
03CC
03CC
0CF0
0CF0
0000
0000
3FC0
3FC0
3CF0
3CF0
3CF0
3CF0
F3C0
F3C0
F3C0
F3C0
F3C0
F3C0
0000
0000
0000
0000
0000
0000
ENDCHAR
STARTCHAR char242
ENCODING 242
SWIDTH 994 0
DWIDTH 14 0
BBX 14 26 0 -6
BITMAP
0000
0000
0F00
0F00
03C0
03C0
0000
0000
0FC0
0FC0
3CF0
3CF0
3CF0
3CF0
F3C0
F3C0
F3C0
F3C0
3F00
3F00
0000
0000
0000
0000
0000
0000
ENDCHAR
STARTCHAR char243
ENCODING 243
SWIDTH 994 0
DWIDTH 14 0
BBX 14 26 0 -6
BITMAP
0000
0000
00F0
00F0
03C0
03C0
0000
0000
0FC0
0FC0
3CF0
3CF0
3CF0
3CF0
F3C0
F3C0
F3C0
F3C0
3F00
3F00
0000
0000
0000
0000
0000
0000
ENDCHAR
STARTCHAR char244
ENCODING 244
SWIDTH 994 0
DWIDTH 14 0
BBX 14 26 0 -6
BITMAP
0000
0000
03F0
03F0
0F3C
0F3C
0000
0000
0FC0
0FC0
3CF0
3CF0
3CF0
3CF0
F3C0
F3C0
F3C0
F3C0
3F00
3F00
0000
0000
0000
0000
0000
0000
ENDCHAR
STARTCHAR char245
ENCODING 245
SWIDTH 994 0
DWIDTH 14 0
BBX 14 26 0 -6
BITMAP
0000
0000
03CC
03CC
0CF0
0CF0
0000
0000
0FC0
0FC0
3CF0
3CF0
3CF0
3CF0
F3C0
F3C0
F3C0
F3C0
3F00
3F00
0000
0000
0000
0000
0000
0000
ENDCHAR
STARTCHAR char246
ENCODING 246
SWIDTH 994 0
DWIDTH 14 0
BBX 14 26 0 -6
BITMAP
0000
0000
0F3C
0F3C
0000
0000
0000
0000
0FC0
0FC0
3CF0
3CF0
3CF0
3CF0
F3C0
F3C0
F3C0
F3C0
3F00
3F00
0000
0000
0000
0000
0000
0000
ENDCHAR
STARTCHAR char247
ENCODING 247
SWIDTH 994 0
DWIDTH 14 0
BBX 14 26 0 -6
BITMAP
0000
0000
0000
0000
0000
0000
0000
0000
0F00
0F00
0000
0000
FFF0
FFF0
0000
0000
3C00
3C00
0000
0000
0000
0000
0000
0000
0000
0000
ENDCHAR
STARTCHAR char248
ENCODING 248
SWIDTH 994 0
DWIDTH 14 0
BBX 14 26 0 -6
BITMAP
0000
0000
0000
0000
0000
0000
00F0
00F0
0FC0
0FC0
3CF0
3CF0
3CF0
3CF0
F3C0
F3C0
F3C0
F3C0
3F00
3F00
F000
F000
0000
0000
0000
0000
ENDCHAR
STARTCHAR char249
ENCODING 249
SWIDTH 994 0
DWIDTH 14 0
BBX 14 26 0 -6
BITMAP
0000
0000
0F00
0F00
03C0
03C0
0000
0000
3CF0
3CF0
3CF0
3CF0
3CF0
3CF0
F3C0
F3C0
F3C0
F3C0
3FC0
3FC0
0000
0000
0000
0000
0000
0000
ENDCHAR
STARTCHAR char250
ENCODING 250
SWIDTH 994 0
DWIDTH 14 0
BBX 14 26 0 -6
BITMAP
0000
0000
00F0
00F0
03C0
03C0
0000
0000
3CF0
3CF0
3CF0
3CF0
3CF0
3CF0
F3C0
F3C0
F3C0
F3C0
3FC0
3FC0
0000
0000
0000
0000
0000
0000
ENDCHAR
STARTCHAR char251
ENCODING 251
SWIDTH 994 0
DWIDTH 14 0
BBX 14 26 0 -6
BITMAP
0000
0000
03F0
03F0
0F3C
0F3C
0000
0000
3CF0
3CF0
3CF0
3CF0
3CF0
3CF0
F3C0
F3C0
F3C0
F3C0
3FC0
3FC0
0000
0000
0000
0000
0000
0000
ENDCHAR
STARTCHAR char252
ENCODING 252
SWIDTH 994 0
DWIDTH 14 0
BBX 14 26 0 -6
BITMAP
0000
0000
0F3C
0F3C
0000
0000
0000
0000
3CF0
3CF0
3CF0
3CF0
3CF0
3CF0
F3C0
F3C0
F3C0
F3C0
3FC0
3FC0
0000
0000
0000
0000
0000
0000
ENDCHAR
STARTCHAR char253
ENCODING 253
SWIDTH 994 0
DWIDTH 14 0
BBX 14 26 0 -6
BITMAP
0000
0000
00F0
00F0
03C0
03C0
0000
0000
3CF0
3CF0
3CF0
3CF0
3CF0
3CF0
F3C0
F3C0
F3C0
F3C0
3FC0
3FC0
0F00
0F00
0F00
0F00
FC00
FC00
ENDCHAR
STARTCHAR char254
ENCODING 254
SWIDTH 994 0
DWIDTH 14 0
BBX 14 26 0 -6
BITMAP
0000
0000
0000
0000
0F00
0F00
0F00
0F00
0FF0
0FF0
3C3C
3C3C
3C3C
3C3C
3CF0
3CF0
F0F0
F0F0
FFC0
FFC0
F000
F000
F000
F000
0000
0000
ENDCHAR
STARTCHAR char255
ENCODING 255
SWIDTH 994 0
DWIDTH 14 0
BBX 14 26 0 -6
BITMAP
0000
0000
3C3C
3C3C
0000
0000
0000
0000
3CF0
3CF0
3CF0
3CF0
3CF0
3CF0
F3C0
F3C0
F3C0
F3C0
3FC0
3FC0
0F00
0F00
0F00
0F00
FC00
FC00
ENDCHAR
ENDFONT
